<?xml version="1.0" encoding="UTF-8"?>
<svg width="500px" height="500px" viewBox="0 0 500 500" version="1.1" xmlns="http://www.w3.org/2000/svg" xmlns:xlink="http://www.w3.org/1999/xlink">
    <!-- Generator: Sketch 49.3 (51167) - http://www.bohemiancoding.com/sketch -->
    <title>Sprites</title>
    <desc>Created with Sketch.</desc>
    <defs>
        <linearGradient x1="-6.72224461%" y1="-21.0155148%" x2="70.9550675%" y2="57.8984485%" id="linearGradient-1">
            <stop stop-color="#544CED" offset="0%"></stop>
            <stop stop-color="#F4306D" offset="100%"></stop>
        </linearGradient>
    </defs>
    <g id="Sprites" stroke="none" stroke-width="1" fill="none" fill-rule="evenodd">
        <path d="M108.49998,0 C108.916645,0 109.270811,0.145833145 109.562477,0.437498957 C109.854143,0.729164769 109.999976,1.08333091 109.999976,1.49999642 L109.999976,14.4999654 C109.999976,14.9166309 109.854143,15.2707971 109.562477,15.5624629 C109.270811,15.8541287 108.916645,15.9999619 108.49998,15.9999619 L101.499996,15.9999619 C101.083331,15.9999619 100.729165,15.8541287 100.437499,15.5624629 C100.145833,15.2707971 100,14.9166309 100,14.4999654 L100,1.49999642 C100,1.08333091 100.145833,0.729164769 100.437499,0.437498957 C100.729165,0.145833145 101.083331,0 101.499996,0 L108.49998,0 Z M104.999988,14.9999642 C105.270821,14.9999642 105.505195,14.901006 105.703111,14.7030899 C105.901027,14.5051739 105.999986,14.2707995 105.999986,13.9999666 C105.999986,13.7291338 105.901027,13.4947593 105.703111,13.2968433 C105.505195,13.0989273 105.270821,12.999969 104.999988,12.999969 C104.729155,12.999969 104.494781,13.0989273 104.296865,13.2968433 C104.098949,13.4947593 103.99999,13.7291338 103.99999,13.9999666 C103.99999,14.2707995 104.098949,14.5051739 104.296865,14.7030899 C104.494781,14.901006 104.729155,14.9999642 104.999988,14.9999642 Z M108.49998,11.6249723 L108.49998,1.87499553 C108.49998,1.77082927 108.463521,1.6822875 108.390605,1.60937116 C108.317689,1.53645483 108.229147,1.49999642 108.124981,1.49999642 L101.874996,1.49999642 C101.770829,1.49999642 101.682287,1.53645483 101.609371,1.60937116 C101.536455,1.6822875 101.499996,1.77082927 101.499996,1.87499553 L101.499996,11.6249723 C101.499996,11.7291385 101.536455,11.8176803 101.609371,11.8905967 C101.682287,11.963513 101.770829,11.9999714 101.874996,11.9999714 L108.124981,11.9999714 C108.229147,11.9999714 108.317689,11.963513 108.390605,11.8905967 C108.463521,11.8176803 108.49998,11.7291385 108.49998,11.6249723 Z" id="" fill="#08496E"></path>
        <path d="M64.2857143,0 C64.7619046,0 65.1666668,0.166666848 65.5,0.5 C65.8333332,0.833333152 66,1.23809542 66,1.71428571 L66,14.2857143 C66,14.7619046 65.8333332,15.1666668 65.5,15.5 C65.1666668,15.8333332 64.7619046,16 64.2857143,16 L51.7142857,16 C51.2380954,16 50.8333332,15.8333332 50.5,15.5 C50.1666668,15.1666668 50,14.7619046 50,14.2857143 L50,1.71428571 C50,1.23809542 50.1666668,0.833333152 50.5,0.5 C50.8333332,0.166666848 51.2380954,0 51.7142857,0 L64.2857143,0 Z M54,13.7142857 C54.4761903,13.7142857 54.8809526,13.5476189 55.2142857,13.2142857 C55.5476189,12.8809526 55.7142857,12.4761903 55.7142857,12 C55.7142857,11.5238097 55.5476189,11.1190474 55.2142857,10.7857143 C54.8809526,10.4523811 54.4761903,10.2857143 54,10.2857143 C53.5238097,10.2857143 53.1190474,10.4523811 52.7857143,10.7857143 C52.4523811,11.1190474 52.2857143,11.5238097 52.2857143,12 C52.2857143,12.4761903 52.4523811,12.8809526 52.7857143,13.2142857 C53.1190474,13.5476189 53.5238097,13.7142857 54,13.7142857 Z M59.6428571,13.7142857 C59.7380954,13.7142857 59.8273811,13.6726189 59.9107143,13.5892857 C59.9940474,13.5059526 60.0357143,13.4047617 60.0357143,13.2857143 C59.9642857,12 59.5952383,10.809524 58.9285714,9.71428571 C58.2619046,8.61904744 57.3809526,7.73809542 56.2857143,7.07142857 C55.190476,6.40476172 54,6.03571429 52.7142857,5.96428571 C52.5952383,5.96428571 52.4940474,6.00595256 52.4107143,6.08928571 C52.3273811,6.17261887 52.2857143,6.26190458 52.2857143,6.35714286 L52.2857143,7.60714286 C52.2857143,7.70238113 52.3214286,7.79166685 52.3928571,7.875 C52.4642857,7.95833315 52.559524,8 52.6785714,8 C53.6071429,8.07142857 54.4642857,8.35119029 55.25,8.83928571 C56.0357143,9.32738113 56.6726189,9.96428571 57.1607143,10.75 C57.6488097,11.5357143 57.9285714,12.3928571 58,13.3214286 C58,13.440476 58.0416668,13.5357143 58.125,13.6071429 C58.2083332,13.6785714 58.2976189,13.7142857 58.3928571,13.7142857 L59.6428571,13.7142857 Z M63.3214286,13.7142857 C63.4166668,13.7142857 63.5059526,13.6726189 63.5892857,13.5892857 C63.6726189,13.5059526 63.7142857,13.4047617 63.7142857,13.2857143 C63.6428571,11.3333332 63.1130954,9.52976172 62.125,7.875 C61.1369046,6.22023828 59.8214286,4.89285714 58.1785714,3.89285714 C56.4880954,2.89285714 54.6666668,2.35714286 52.7142857,2.28571429 C52.5952383,2.28571429 52.4940474,2.32738113 52.4107143,2.41071429 C52.3273811,2.49404744 52.2857143,2.58333315 52.2857143,2.67857143 L52.2857143,3.92857143 C52.2857143,4.02380971 52.3214286,4.11309542 52.3928571,4.19642857 C52.4642857,4.27976172 52.559524,4.32142857 52.6785714,4.32142857 C54.2738097,4.39285714 55.75,4.83333315 57.1071429,5.64285714 C58.4642857,6.45238113 59.5476189,7.53571429 60.3571429,8.89285714 C61.1666668,10.25 61.6071429,11.7261903 61.6785714,13.3214286 C61.6785714,13.440476 61.7202383,13.5357143 61.8035714,13.6071429 C61.8869046,13.6785714 61.9761903,13.7142857 62.0714286,13.7142857 L63.3214286,13.7142857 Z" id="" fill="#F26522"></path>
        <path d="M8.53122966,5.39061215 C8.71872921,5.49998701 8.81247899,5.66404912 8.81247899,5.88279847 C8.81247899,6.10154783 8.71872921,6.26560994 8.53122966,6.3749848 L4.40623949,8.74216666 C4.21873994,8.85154152 4.03124039,8.85154152 3.84374084,8.74216666 C3.65624128,8.6327918 3.56249151,8.46872969 3.56249151,8.24998033 L3.56249151,3.37499195 C3.56249151,3.15624259 3.65624128,2.99218049 3.84374084,2.88280563 C4.03124039,2.77343077 4.21873994,2.77343077 4.40623949,2.88280563 L8.53122966,5.39061215 Z M11.6249723,5.81248614 C11.6249723,6.85935877 11.363254,7.82810634 10.8398179,8.71872921 C10.3163818,9.60935209 9.60935209,10.3163818 8.71872921,10.8398179 C7.82810634,11.363254 6.85935877,11.6249723 5.81248614,11.6249723 C4.76561352,11.6249723 3.79686595,11.363254 2.90624307,10.8398179 C2.01562019,10.3163818 1.30859051,9.60935209 0.785154378,8.71872921 C0.261718245,7.82810634 0,6.85935877 0,5.81248614 C0,4.76561352 0.261718245,3.79686595 0.785154378,2.90624307 C1.30859051,2.01562019 2.01562019,1.30859051 2.90624307,0.785154378 C3.79686595,0.261718245 4.76561352,0 5.81248614,0 C6.85935877,0 7.82810634,0.261718245 8.71872921,0.785154378 C9.60935209,1.30859051 10.3163818,2.01562019 10.8398179,2.90624307 C11.363254,3.79686595 11.6249723,4.76561352 11.6249723,5.81248614 Z M1.12499732,5.81248614 C1.12499732,6.65623413 1.33593431,7.43748215 1.75780831,8.15623055 C2.1796823,8.87497896 2.74999332,9.44528998 3.46874173,9.86716397 C4.18749014,10.289038 4.96873815,10.499975 5.81248614,10.499975 C6.65623413,10.499975 7.43748215,10.289038 8.15623055,9.86716397 C8.87497896,9.44528998 9.44528998,8.87497896 9.86716397,8.15623055 C10.289038,7.43748215 10.499975,6.65623413 10.499975,5.81248614 C10.499975,4.96873815 10.289038,4.18749014 9.86716397,3.46874173 C9.44528998,2.74999332 8.87497896,2.1796823 8.15623055,1.75780831 C7.43748215,1.33593431 6.65623413,1.12499732 5.81248614,1.12499732 C4.96873815,1.12499732 4.18749014,1.33593431 3.46874173,1.75780831 C2.74999332,2.1796823 2.1796823,2.74999332 1.75780831,3.46874173 C1.33593431,4.18749014 1.12499732,4.96873815 1.12499732,5.81248614 Z" id="" fill="#0B6AA0"></path>
        <path d="M8.53122966,55.3906121 C8.71872921,55.499987 8.81247899,55.6640491 8.81247899,55.8827985 C8.81247899,56.1015478 8.71872921,56.2656099 8.53122966,56.3749848 L4.40623949,58.7421667 C4.21873994,58.8515415 4.03124039,58.8515415 3.84374084,58.7421667 C3.65624128,58.6327918 3.56249151,58.4687297 3.56249151,58.2499803 L3.56249151,53.374992 C3.56249151,53.1562426 3.65624128,52.9921805 3.84374084,52.8828056 C4.03124039,52.7734308 4.21873994,52.7734308 4.40623949,52.8828056 L8.53122966,55.3906121 Z M11.6249723,55.8124861 C11.6249723,56.8593588 11.363254,57.8281063 10.8398179,58.7187292 C10.3163818,59.6093521 9.60935209,60.3163818 8.71872921,60.8398179 C7.82810634,61.363254 6.85935877,61.6249723 5.81248614,61.6249723 C4.76561352,61.6249723 3.79686595,61.363254 2.90624307,60.8398179 C2.01562019,60.3163818 1.30859051,59.6093521 0.785154378,58.7187292 C0.261718245,57.8281063 0,56.8593588 0,55.8124861 C0,54.7656135 0.261718245,53.7968659 0.785154378,52.9062431 C1.30859051,52.0156202 2.01562019,51.3085905 2.90624307,50.7851544 C3.79686595,50.2617182 4.76561352,50 5.81248614,50 C6.85935877,50 7.82810634,50.2617182 8.71872921,50.7851544 C9.60935209,51.3085905 10.3163818,52.0156202 10.8398179,52.9062431 C11.363254,53.7968659 11.6249723,54.7656135 11.6249723,55.8124861 Z M1.12499732,55.8124861 C1.12499732,56.6562341 1.33593431,57.4374821 1.75780831,58.1562306 C2.1796823,58.874979 2.74999332,59.44529 3.46874173,59.867164 C4.18749014,60.289038 4.96873815,60.499975 5.81248614,60.499975 C6.65623413,60.499975 7.43748215,60.289038 8.15623055,59.867164 C8.87497896,59.44529 9.44528998,58.874979 9.86716397,58.1562306 C10.289038,57.4374821 10.499975,56.6562341 10.499975,55.8124861 C10.499975,54.9687382 10.289038,54.1874901 9.86716397,53.4687417 C9.44528998,52.7499933 8.87497896,52.1796823 8.15623055,51.7578083 C7.43748215,51.3359343 6.65623413,51.1249973 5.81248614,51.1249973 C4.96873815,51.1249973 4.18749014,51.3359343 3.46874173,51.7578083 C2.74999332,52.1796823 2.1796823,52.7499933 1.75780831,53.4687417 C1.33593431,54.1874901 1.12499732,54.9687382 1.12499732,55.8124861 Z" id="-copy" fill="#FFFFFF"></path>
        <path d="M161.835909,10.3827877 C161.945284,10.4921626 161.999971,10.6249745 161.999971,10.7812243 C161.999971,10.937474 161.945284,11.070286 161.835909,11.1796608 L161.179661,11.8359093 C161.070286,11.9452841 160.937474,11.9999714 160.781224,11.9999714 C160.624975,11.9999714 160.492163,11.9452841 160.382788,11.8359093 L158.039043,9.49216487 C157.929668,9.38279001 157.874981,9.24997807 157.874981,9.09372832 L157.874981,8.71872921 C156.999983,9.40622745 155.999986,9.74997675 154.874988,9.74997675 C153.984366,9.74997675 153.167961,9.53122739 152.425775,9.09372832 C151.68359,8.65622924 151.093748,8.06638714 150.656248,7.32420129 C150.218749,6.58201544 150,5.76561125 150,4.87498838 C150,3.9843655 150.218749,3.16796132 150.656248,2.42577547 C151.093748,1.68358962 151.68359,1.09374751 152.425775,0.656248435 C153.167961,0.218749359 153.984366,0 154.874988,0 C155.765611,0 156.582015,0.218749359 157.324201,0.656248435 C158.066387,1.09374751 158.656229,1.68358962 159.093728,2.42577547 C159.531227,3.16796132 159.749977,3.9843655 159.749977,4.87498838 C159.749977,5.99998569 159.406227,6.99998343 158.718729,7.87498122 L159.093728,7.87498122 C159.249978,7.87498122 159.38279,7.92966847 159.492165,8.03904333 L161.835909,10.3827877 Z M154.874988,7.87498122 C155.421862,7.87498122 155.925767,7.74216892 156.386704,7.47654467 C156.84764,7.21092043 157.21092,6.84764004 157.476545,6.38670352 C157.742169,5.925767 157.874981,5.42186195 157.874981,4.87498838 C157.874981,4.3281148 157.742169,3.82420975 157.476545,3.36327323 C157.21092,2.90233671 156.84764,2.53905633 156.386704,2.27343208 C155.925767,2.00780783 155.421862,1.87499553 154.874988,1.87499553 C154.328115,1.87499553 153.82421,2.00780783 153.363273,2.27343208 C152.902337,2.53905633 152.539056,2.90233671 152.273432,3.36327323 C152.007808,3.82420975 151.874996,4.3281148 151.874996,4.87498838 C151.874996,5.42186195 152.007808,5.925767 152.273432,6.38670352 C152.539056,6.84764004 152.902337,7.21092043 153.363273,7.47654467 C153.82421,7.74216892 154.328115,7.87498122 154.874988,7.87498122 Z" id="" fill="#555555"></path>
        <path d="M213.999967,1.49999642 L213.999967,12.4999702 C213.999967,12.9166357 213.854133,13.2708019 213.562468,13.5624677 C213.270802,13.8541335 212.916636,13.9999666 212.49997,13.9999666 L209.843727,13.9999666 L209.843727,8.46872981 L211.718722,8.46872981 L211.999971,6.34373488 L209.843727,6.34373488 L209.843727,4.99998808 C209.843727,4.66665538 209.906226,4.41665598 210.031226,4.24998987 C210.197892,4.06249031 210.479142,3.96874054 210.874974,3.96874054 L211.999971,3.96874054 L211.999971,2.09374501 C211.562472,2.03124516 211.020807,1.99999523 210.374975,1.99999523 C209.541644,1.99999523 208.880187,2.24478616 208.390605,2.73436848 C207.901023,3.22395081 207.656232,3.90624069 207.656232,4.7812386 L207.656232,6.34373488 L205.749986,6.34373488 L205.749986,8.46872981 L207.656232,8.46872981 L207.656232,13.9999666 L201.499996,13.9999666 C201.083331,13.9999666 200.729165,13.8541335 200.437499,13.5624677 C200.145833,13.2708019 200,12.9166357 200,12.4999702 L200,1.49999642 C200,1.08333091 200.145833,0.729164769 200.437499,0.437498957 C200.729165,0.145833145 201.083331,0 201.499996,0 L212.49997,0 C212.916636,0 213.270802,0.145833145 213.562468,0.437498957 C213.854133,0.729164769 213.999967,1.08333091 213.999967,1.49999642 Z" id="" fill="#777777"></path>
        <path d="M262.49997,0 C262.916636,0 263.270802,0.145833145 263.562468,0.437498957 C263.854133,0.729164769 263.999967,1.08333091 263.999967,1.49999642 L263.999967,12.4999702 C263.999967,12.9166357 263.854133,13.2708019 263.562468,13.5624677 C263.270802,13.8541335 262.916636,13.9999666 262.49997,13.9999666 L251.499996,13.9999666 C251.083331,13.9999666 250.729165,13.8541335 250.437499,13.5624677 C250.145833,13.2708019 250,12.9166357 250,12.4999702 L250,1.49999642 C250,1.08333091 250.145833,0.729164769 250.437499,0.437498957 C250.729165,0.145833145 251.083331,0 251.499996,0 L262.49997,0 Z M260.968724,4.96873815 C261.364556,4.67707234 261.708306,4.3229062 261.999971,3.90624069 C261.604139,4.0729068 261.208307,4.17707353 260.812474,4.21873994 C261.249973,3.9479071 261.552056,3.57290799 261.718722,3.09374262 C261.302057,3.34374203 260.864558,3.51040814 260.406225,3.59374143 C260.010393,3.15624247 259.520811,2.937493 258.937479,2.937493 C258.520813,2.937493 258.140606,3.05207622 257.796856,3.28124218 C257.453107,3.51040814 257.197899,3.81769939 257.031233,4.20311498 C256.864567,4.58853057 256.833317,5.01040456 256.937483,5.46873696 C256.083319,5.42707055 255.291654,5.21352908 254.562489,4.82811349 C253.833324,4.4426979 253.208326,3.93749061 252.687494,3.3124921 C252.499994,3.62499136 252.406244,3.96353206 252.406244,4.32811468 C252.406244,4.6926973 252.489578,5.02602952 252.656244,5.3281123 C252.82291,5.63019507 253.052076,5.87498599 253.343742,6.06248555 C253.010409,6.0416521 252.69791,5.94790233 252.406244,5.78123622 L252.406244,5.81248614 C252.406244,6.31248495 252.562494,6.74998391 252.874993,7.12498301 C253.187492,7.49998212 253.583325,7.73956504 254.06249,7.8437313 C253.770825,7.90623115 253.458325,7.91664763 253.124993,7.87498122 C253.249992,8.29164674 253.489575,8.63018792 253.843741,8.8906038 C254.197906,9.15101969 254.593739,9.28122787 255.031238,9.28122787 C254.28124,9.86455997 253.437492,10.1562258 252.499994,10.1562258 L251.999995,10.1562258 C252.958326,10.7603909 254.010407,11.0624736 255.156238,11.0624736 C256.343735,11.0624736 257.406232,10.7603909 258.34373,10.1562258 C259.177062,9.61456057 259.83331,8.87497884 260.312475,7.93748108 C260.749974,7.06248316 260.968724,6.15623532 260.968724,5.21873756 L260.968724,4.96873815 Z" id="" fill="#777777"></path>
        <path d="M462.49997,0 C462.916636,0 463.270802,0.145833145 463.562468,0.437498957 C463.854133,0.729164769 463.999967,1.08333091 463.999967,1.49999642 L463.999967,12.4999702 C463.999967,12.9166357 463.854133,13.2708019 463.562468,13.5624677 C463.270802,13.8541335 462.916636,13.9999666 462.49997,13.9999666 L451.499996,13.9999666 C451.083331,13.9999666 450.729165,13.8541335 450.437499,13.5624677 C450.145833,13.2708019 450,12.9166357 450,12.4999702 L450,1.49999642 C450,1.08333091 450.145833,0.729164769 450.437499,0.437498957 C450.729165,0.145833145 451.083331,0 451.499996,0 L462.49997,0 Z M455.124988,10.1249759 C456.020819,10.1249759 456.744775,9.84372653 457.296858,9.28122787 C457.84894,8.71872921 458.124981,7.97914748 458.124981,7.06248316 C458.124981,6.89581705 458.104147,6.72915046 458.062481,6.56248435 L455.124988,6.56248435 L455.124988,7.62498182 L456.906234,7.62498182 C456.843734,7.93748108 456.687484,8.2187304 456.437485,8.46872981 C456.104152,8.80206251 455.671861,8.96872862 455.140613,8.96872862 C454.609364,8.96872862 454.151032,8.77602058 453.765616,8.390605 C453.3802,8.00518941 453.187492,7.54164853 453.187492,6.99998331 C453.187492,6.45831809 453.374992,5.99477722 453.749991,5.60936163 C454.12499,5.22394604 454.572906,5.031238 455.093738,5.031238 C455.61457,5.031238 456.041652,5.18748763 456.374985,5.49998689 L457.218733,4.68748882 C456.635401,4.14582361 455.937486,3.87499076 455.124988,3.87499076 C454.270823,3.87499076 453.53645,4.18228154 452.921868,4.79686356 C452.307286,5.41144559 451.999995,6.14581884 451.999995,6.99998331 C451.999995,7.85414778 452.307286,8.58852103 452.921868,9.20310306 C453.53645,9.81768509 454.270823,10.1249759 455.124988,10.1249759 Z M461.999971,7.56248197 L461.999971,6.65623413 L461.093724,6.65623413 L461.093724,5.74998629 L460.187476,5.74998629 L460.187476,6.65623413 L459.281228,6.65623413 L459.281228,7.56248197 L460.187476,7.56248197 L460.187476,8.46872981 L461.093724,8.46872981 L461.093724,7.56248197 L461.999971,7.56248197 Z" id="" fill="#777777"></path>
        <rect id="Rectangle-2" fill="#777777" x="400" y="0" width="14" height="14" rx="2"></rect>
        <path d="M407,4.43303571 C407.46131,4.43303571 407.889137,4.54836321 408.283482,4.77901786 C408.677827,5.00967251 408.990327,5.32217251 409.220982,5.71651786 C409.451637,6.11086321 409.566964,6.53869036 409.566964,7 C409.566964,7.46130964 409.451637,7.88913679 409.220982,8.28348214 C408.990327,8.67782749 408.677827,8.99032749 408.283482,9.22098214 C407.889137,9.45163679 407.46131,9.56696429 407,9.56696429 C406.53869,9.56696429 406.110863,9.45163679 405.716518,9.22098214 C405.322173,8.99032749 405.009673,8.67782749 404.779018,8.28348214 C404.548363,7.88913679 404.433036,7.46130964 404.433036,7 C404.433036,6.53869036 404.548363,6.11086321 404.779018,5.71651786 C405.009673,5.32217251 405.322173,5.00967251 405.716518,4.77901786 C406.110863,4.54836321 406.53869,4.43303571 407,4.43303571 Z M407,8.67410714 C407.46131,8.67410714 407.855655,8.51041678 408.183036,8.18303571 C408.510417,7.85565465 408.674107,7.46130964 408.674107,7 C408.674107,6.53869036 408.510417,6.14434535 408.183036,5.81696429 C407.855655,5.48958322 407.46131,5.32589286 407,5.32589286 C406.53869,5.32589286 406.144345,5.48958322 405.816964,5.81696429 C405.489583,6.14434535 405.325893,6.53869036 405.325893,7 C405.325893,7.46130964 405.489583,7.85565465 405.816964,8.18303571 C406.144345,8.51041678 406.53869,8.67410714 407,8.67410714 Z M410.28125,4.32142857 C410.266369,4.48511893 410.203125,4.62648821 410.091518,4.74553571 C409.979911,4.86458322 409.842262,4.92410714 409.678571,4.92410714 C409.514881,4.92410714 409.373512,4.86458322 409.254464,4.74553571 C409.135417,4.62648821 409.075893,4.48511893 409.075893,4.32142857 C409.075893,4.15773821 409.135417,4.01636893 409.254464,3.89732143 C409.373512,3.77827392 409.514881,3.71875 409.678571,3.71875 C409.842262,3.71875 409.983631,3.77827392 410.102679,3.89732143 C410.221726,4.01636893 410.28125,4.15773821 410.28125,4.32142857 Z M411.977679,4.92410714 C411.99256,5.34077392 412,6.03273821 412,7 C412,7.96726179 411.988839,8.66294643 411.966518,9.08705357 C411.944196,9.51116071 411.880952,9.87946429 411.776786,10.1919643 C411.642857,10.5639882 411.438244,10.8876489 411.162946,11.1629464 C410.887649,11.4382439 410.563988,11.6428571 410.191964,11.7767857 C409.879464,11.8809525 409.511161,11.9441964 409.087054,11.9665179 C408.662946,11.9888393 407.967262,12 407,12 C406.032738,12 405.337054,11.9888393 404.912946,11.9665179 C404.488839,11.9441964 404.120536,11.8735118 403.808036,11.7544643 C403.436012,11.6354168 403.112351,11.4382439 402.837054,11.1629464 C402.561756,10.8876489 402.357143,10.5639882 402.223214,10.1919643 C402.119048,9.87946429 402.055804,9.51116071 402.033482,9.08705357 C402.011161,8.66294643 402,7.96726179 402,7 C402,6.03273821 402.011161,5.33705357 402.033482,4.91294643 C402.055804,4.48883929 402.119048,4.12053571 402.223214,3.80803571 C402.357143,3.43601179 402.561756,3.11235108 402.837054,2.83705357 C403.112351,2.56175607 403.436012,2.35714286 403.808036,2.22321429 C404.120536,2.11904751 404.488839,2.05580357 404.912946,2.03348214 C405.337054,2.01116071 406.032738,2 407,2 C407.967262,2 408.662946,2.01116071 409.087054,2.03348214 C409.511161,2.05580357 409.879464,2.11904751 410.191964,2.22321429 C410.563988,2.35714286 410.887649,2.56175607 411.162946,2.83705357 C411.438244,3.11235108 411.642857,3.43601179 411.776786,3.80803571 C411.880952,4.12053571 411.947917,4.49255964 411.977679,4.92410714 Z M410.90625,9.94642857 C410.995536,9.69345249 411.05506,9.29166678 411.084821,8.74107143 C411.099702,8.41369036 411.107143,7.95238107 411.107143,7.35714286 L411.107143,6.64285714 C411.107143,6.03273821 411.099702,5.57142857 411.084821,5.25892857 C411.05506,4.69345249 410.995536,4.29166678 410.90625,4.05357143 C410.727679,3.59226179 410.407738,3.27232143 409.946429,3.09375 C409.708333,3.00446429 409.306548,2.94494036 408.741071,2.91517857 C408.41369,2.90029751 407.952381,2.89285714 407.357143,2.89285714 L406.642857,2.89285714 C406.047619,2.89285714 405.58631,2.90029751 405.258929,2.91517857 C404.708333,2.94494036 404.306548,3.00446429 404.053571,3.09375 C403.592262,3.27232143 403.272321,3.59226179 403.09375,4.05357143 C403.004464,4.29166678 402.94494,4.69345249 402.915179,5.25892857 C402.900298,5.58630964 402.892857,6.04761893 402.892857,6.64285714 L402.892857,7.35714286 C402.892857,7.95238107 402.900298,8.41369036 402.915179,8.74107143 C402.94494,9.29166678 403.004464,9.69345249 403.09375,9.94642857 C403.287202,10.4077382 403.607143,10.7276786 404.053571,10.90625 C404.306548,10.9955357 404.708333,11.0550596 405.258929,11.0848214 C405.58631,11.0997025 406.047619,11.1071429 406.642857,11.1071429 L407.357143,11.1071429 C407.967262,11.1071429 408.428571,11.0997025 408.741071,11.0848214 C409.306548,11.0550596 409.708333,10.9955357 409.946429,10.90625 C410.407738,10.7127975 410.727679,10.3928571 410.90625,9.94642857 Z" id="" fill="#F0F0F0"></path>
        <rect id="Rectangle-2-Copy-2" fill="url(#linearGradient-1)" x="400" y="50" width="14" height="14" rx="2"></rect>
        <path d="M407,54.4330357 C407.46131,54.4330357 407.889137,54.5483632 408.283482,54.7790179 C408.677827,55.0096725 408.990327,55.3221725 409.220982,55.7165179 C409.451637,56.1108632 409.566964,56.5386904 409.566964,57 C409.566964,57.4613096 409.451637,57.8891368 409.220982,58.2834821 C408.990327,58.6778275 408.677827,58.9903275 408.283482,59.2209821 C407.889137,59.4516368 407.46131,59.5669643 407,59.5669643 C406.53869,59.5669643 406.110863,59.4516368 405.716518,59.2209821 C405.322173,58.9903275 405.009673,58.6778275 404.779018,58.2834821 C404.548363,57.8891368 404.433036,57.4613096 404.433036,57 C404.433036,56.5386904 404.548363,56.1108632 404.779018,55.7165179 C405.009673,55.3221725 405.322173,55.0096725 405.716518,54.7790179 C406.110863,54.5483632 406.53869,54.4330357 407,54.4330357 Z M407,58.6741071 C407.46131,58.6741071 407.855655,58.5104168 408.183036,58.1830357 C408.510417,57.8556546 408.674107,57.4613096 408.674107,57 C408.674107,56.5386904 408.510417,56.1443454 408.183036,55.8169643 C407.855655,55.4895832 407.46131,55.3258929 407,55.3258929 C406.53869,55.3258929 406.144345,55.4895832 405.816964,55.8169643 C405.489583,56.1443454 405.325893,56.5386904 405.325893,57 C405.325893,57.4613096 405.489583,57.8556546 405.816964,58.1830357 C406.144345,58.5104168 406.53869,58.6741071 407,58.6741071 Z M410.28125,54.3214286 C410.266369,54.4851189 410.203125,54.6264882 410.091518,54.7455357 C409.979911,54.8645832 409.842262,54.9241071 409.678571,54.9241071 C409.514881,54.9241071 409.373512,54.8645832 409.254464,54.7455357 C409.135417,54.6264882 409.075893,54.4851189 409.075893,54.3214286 C409.075893,54.1577382 409.135417,54.0163689 409.254464,53.8973214 C409.373512,53.7782739 409.514881,53.71875 409.678571,53.71875 C409.842262,53.71875 409.983631,53.7782739 410.102679,53.8973214 C410.221726,54.0163689 410.28125,54.1577382 410.28125,54.3214286 Z M411.977679,54.9241071 C411.99256,55.3407739 412,56.0327382 412,57 C412,57.9672618 411.988839,58.6629464 411.966518,59.0870536 C411.944196,59.5111607 411.880952,59.8794643 411.776786,60.1919643 C411.642857,60.5639882 411.438244,60.8876489 411.162946,61.1629464 C410.887649,61.4382439 410.563988,61.6428571 410.191964,61.7767857 C409.879464,61.8809525 409.511161,61.9441964 409.087054,61.9665179 C408.662946,61.9888393 407.967262,62 407,62 C406.032738,62 405.337054,61.9888393 404.912946,61.9665179 C404.488839,61.9441964 404.120536,61.8735118 403.808036,61.7544643 C403.436012,61.6354168 403.112351,61.4382439 402.837054,61.1629464 C402.561756,60.8876489 402.357143,60.5639882 402.223214,60.1919643 C402.119048,59.8794643 402.055804,59.5111607 402.033482,59.0870536 C402.011161,58.6629464 402,57.9672618 402,57 C402,56.0327382 402.011161,55.3370536 402.033482,54.9129464 C402.055804,54.4888393 402.119048,54.1205357 402.223214,53.8080357 C402.357143,53.4360118 402.561756,53.1123511 402.837054,52.8370536 C403.112351,52.5617561 403.436012,52.3571429 403.808036,52.2232143 C404.120536,52.1190475 404.488839,52.0558036 404.912946,52.0334821 C405.337054,52.0111607 406.032738,52 407,52 C407.967262,52 408.662946,52.0111607 409.087054,52.0334821 C409.511161,52.0558036 409.879464,52.1190475 410.191964,52.2232143 C410.563988,52.3571429 410.887649,52.5617561 411.162946,52.8370536 C411.438244,53.1123511 411.642857,53.4360118 411.776786,53.8080357 C411.880952,54.1205357 411.947917,54.4925596 411.977679,54.9241071 Z M410.90625,59.9464286 C410.995536,59.6934525 411.05506,59.2916668 411.084821,58.7410714 C411.099702,58.4136904 411.107143,57.9523811 411.107143,57.3571429 L411.107143,56.6428571 C411.107143,56.0327382 411.099702,55.5714286 411.084821,55.2589286 C411.05506,54.6934525 410.995536,54.2916668 410.90625,54.0535714 C410.727679,53.5922618 410.407738,53.2723214 409.946429,53.09375 C409.708333,53.0044643 409.306548,52.9449404 408.741071,52.9151786 C408.41369,52.9002975 407.952381,52.8928571 407.357143,52.8928571 L406.642857,52.8928571 C406.047619,52.8928571 405.58631,52.9002975 405.258929,52.9151786 C404.708333,52.9449404 404.306548,53.0044643 404.053571,53.09375 C403.592262,53.2723214 403.272321,53.5922618 403.09375,54.0535714 C403.004464,54.2916668 402.94494,54.6934525 402.915179,55.2589286 C402.900298,55.5863096 402.892857,56.0476189 402.892857,56.6428571 L402.892857,57.3571429 C402.892857,57.9523811 402.900298,58.4136904 402.915179,58.7410714 C402.94494,59.2916668 403.004464,59.6934525 403.09375,59.9464286 C403.287202,60.4077382 403.607143,60.7276786 404.053571,60.90625 C404.306548,60.9955357 404.708333,61.0550596 405.258929,61.0848214 C405.58631,61.0997025 406.047619,61.1071429 406.642857,61.1071429 L407.357143,61.1071429 C407.967262,61.1071429 408.428571,61.0997025 408.741071,61.0848214 C409.306548,61.0550596 409.708333,60.9955357 409.946429,60.90625 C410.407738,60.7127975 410.727679,60.3928571 410.90625,59.9464286 Z" id="-copy" fill="#F0F0F0"></path>
        <rect id="Rectangle-2" fill="#777777" x="300" y="0" width="14" height="14" rx="1"></rect>
        <path d="M306.442519,9.15558198 C307.530289,9.15558198 308.545526,9.14938885 309.560619,9.15800228 C310.130886,9.16284288 310.439131,9.40316449 310.491607,9.8480015 C310.558101,10.4110061 310.226278,10.7845866 309.610364,10.7914916 C308.448553,10.8045185 307.286453,10.7965458 306.124498,10.7965458 C305.789081,10.7965458 305.452873,10.8080778 305.118534,10.7890001 C304.701527,10.7652242 304.293793,10.6835747 304.094455,10.2576018 C303.894613,9.83077465 304.033424,9.44772649 304.309392,9.10012862 C305.419806,7.70176437 306.531513,6.30453909 307.642502,4.90667313 C307.708492,4.82367106 307.772255,4.73888936 307.836377,4.6558161 C307.768589,4.53437396 307.660832,4.58875954 307.577014,4.58826124 C306.798423,4.58349182 306.019761,4.58897309 305.24117,4.58277997 C305.063182,4.58135626 304.879946,4.56719039 304.708787,4.52277075 C304.347491,4.4290197 304.128241,4.14257001 304.125365,3.80109407 C304.12249,3.45897747 304.335199,3.16918206 304.695488,3.06859722 C304.865713,3.02104543 305.04974,3.00453044 305.227584,3.00381859 C306.509372,2.99869324 307.791161,2.99897799 309.072877,3.00317792 C309.299316,3.00396096 309.52748,3.00965578 309.747378,3.08482747 C310.233323,3.25104517 310.447326,3.69460084 310.249713,4.16428153 C310.077619,4.57331232 309.803376,4.92098138 309.529637,5.26601658 C308.589951,6.45025542 307.646671,7.63178921 306.705116,8.81467552 C306.632009,8.90657576 306.561705,9.00061155 306.442519,9.15558198" id="Fill-1" fill="#F0F0F0"></path>
        <path d="M355.843736,5.31248733 L358.812479,6.99998331 L355.843736,8.68747929 L355.843736,5.31248733 Z M363.999967,1.49999642 L363.999967,12.4999702 C363.999967,12.9166357 363.854133,13.2708019 363.562468,13.5624677 C363.270802,13.8541335 362.916636,13.9999666 362.49997,13.9999666 L351.499996,13.9999666 C351.083331,13.9999666 350.729165,13.8541335 350.437499,13.5624677 C350.145833,13.2708019 350,12.9166357 350,12.4999702 L350,1.49999642 C350,1.08333091 350.145833,0.729164769 350.437499,0.437498957 C350.729165,0.145833145 351.083331,0 351.499996,0 L362.49997,0 C362.916636,0 363.270802,0.145833145 363.562468,0.437498957 C363.854133,0.729164769 363.999967,1.08333091 363.999967,1.49999642 Z M362.68747,6.99998331 C362.68747,6.66665061 362.677053,6.32290143 362.65622,5.96873577 C362.614553,5.19790411 362.541637,4.62498897 362.43747,4.24998987 C362.37497,3.99999046 362.255179,3.78644946 362.078096,3.60936639 C361.901013,3.43228332 361.687472,3.3124921 361.437473,3.24999225 C361.083307,3.14582599 360.229142,3.07290918 358.874979,3.03124277 L356.999983,2.99999285 L355.124988,3.03124277 C353.770825,3.07290918 352.91666,3.14582599 352.562494,3.24999225 C352.312494,3.3124921 352.098953,3.43228332 351.92187,3.60936639 C351.744787,3.78644946 351.624996,3.99999046 351.562496,4.24998987 C351.39583,4.85415493 351.312497,5.77081973 351.312497,6.99998331 L351.343747,8.06248078 C351.385413,8.83331243 351.45833,9.39581109 351.562496,9.74997675 C351.624996,9.99997616 351.744787,10.2135172 351.92187,10.3906002 C352.098953,10.5676833 352.312494,10.6874745 352.562494,10.7499744 C352.91666,10.8541406 353.770825,10.9270574 355.124988,10.9687238 L356.999983,10.9999738 L358.874979,10.9687238 C360.229142,10.9270574 361.083307,10.8541406 361.437473,10.7499744 C361.687472,10.6874745 361.901013,10.5676833 362.078096,10.3906002 C362.255179,10.2135172 362.37497,9.99997616 362.43747,9.74997675 C362.604136,9.16664465 362.68747,8.24998033 362.68747,6.99998331 Z" id="" fill="#777777"></path>
        <path d="M213.999967,51.4999964 L213.999967,62.4999702 C213.999967,62.9166357 213.854133,63.2708019 213.562468,63.5624677 C213.270802,63.8541335 212.916636,63.9999666 212.49997,63.9999666 L209.843727,63.9999666 L209.843727,58.4687298 L211.718722,58.4687298 L211.999971,56.3437349 L209.843727,56.3437349 L209.843727,54.9999881 C209.843727,54.6666554 209.906226,54.416656 210.031226,54.2499899 C210.197892,54.0624903 210.479142,53.9687405 210.874974,53.9687405 L211.999971,53.9687405 L211.999971,52.093745 C211.562472,52.0312452 211.020807,51.9999952 210.374975,51.9999952 C209.541644,51.9999952 208.880187,52.2447862 208.390605,52.7343685 C207.901023,53.2239508 207.656232,53.9062407 207.656232,54.7812386 L207.656232,56.3437349 L205.749986,56.3437349 L205.749986,58.4687298 L207.656232,58.4687298 L207.656232,63.9999666 L201.499996,63.9999666 C201.083331,63.9999666 200.729165,63.8541335 200.437499,63.5624677 C200.145833,63.2708019 200,62.9166357 200,62.4999702 L200,51.4999964 C200,51.0833309 200.145833,50.7291648 200.437499,50.437499 C200.729165,50.1458331 201.083331,50 201.499996,50 L212.49997,50 C212.916636,50 213.270802,50.1458331 213.562468,50.437499 C213.854133,50.7291648 213.999967,51.0833309 213.999967,51.4999964 Z" id="-copy" fill="#3B5998"></path>
        <path d="M262.49997,50 C262.916636,50 263.270802,50.1458331 263.562468,50.437499 C263.854133,50.7291648 263.999967,51.0833309 263.999967,51.4999964 L263.999967,62.4999702 C263.999967,62.9166357 263.854133,63.2708019 263.562468,63.5624677 C263.270802,63.8541335 262.916636,63.9999666 262.49997,63.9999666 L251.499996,63.9999666 C251.083331,63.9999666 250.729165,63.8541335 250.437499,63.5624677 C250.145833,63.2708019 250,62.9166357 250,62.4999702 L250,51.4999964 C250,51.0833309 250.145833,50.7291648 250.437499,50.437499 C250.729165,50.1458331 251.083331,50 251.499996,50 L262.49997,50 Z M260.968724,54.9687382 C261.364556,54.6770723 261.708306,54.3229062 261.999971,53.9062407 C261.604139,54.0729068 261.208307,54.1770735 260.812474,54.2187399 C261.249973,53.9479071 261.552056,53.572908 261.718722,53.0937426 C261.302057,53.343742 260.864558,53.5104081 260.406225,53.5937414 C260.010393,53.1562425 259.520811,52.937493 258.937479,52.937493 C258.520813,52.937493 258.140606,53.0520762 257.796856,53.2812422 C257.453107,53.5104081 257.197899,53.8176994 257.031233,54.203115 C256.864567,54.5885306 256.833317,55.0104046 256.937483,55.468737 C256.083319,55.4270706 255.291654,55.2135291 254.562489,54.8281135 C253.833324,54.4426979 253.208326,53.9374906 252.687494,53.3124921 C252.499994,53.6249914 252.406244,53.9635321 252.406244,54.3281147 C252.406244,54.6926973 252.489578,55.0260295 252.656244,55.3281123 C252.82291,55.6301951 253.052076,55.874986 253.343742,56.0624855 C253.010409,56.0416521 252.69791,55.9479023 252.406244,55.7812362 L252.406244,55.8124861 C252.406244,56.3124849 252.562494,56.7499839 252.874993,57.124983 C253.187492,57.4999821 253.583325,57.739565 254.06249,57.8437313 C253.770825,57.9062312 253.458325,57.9166476 253.124993,57.8749812 C253.249992,58.2916467 253.489575,58.6301879 253.843741,58.8906038 C254.197906,59.1510197 254.593739,59.2812279 255.031238,59.2812279 C254.28124,59.86456 253.437492,60.1562258 252.499994,60.1562258 L251.999995,60.1562258 C252.958326,60.7603909 254.010407,61.0624736 255.156238,61.0624736 C256.343735,61.0624736 257.406232,60.7603909 258.34373,60.1562258 C259.177062,59.6145606 259.83331,58.8749788 260.312475,57.9374811 C260.749974,57.0624832 260.968724,56.1562353 260.968724,55.2187376 L260.968724,54.9687382 Z" id="-copy" fill="#00ACED"></path>
        <path d="M462.49997,50 C462.916636,50 463.270802,50.1458331 463.562468,50.437499 C463.854133,50.7291648 463.999967,51.0833309 463.999967,51.4999964 L463.999967,62.4999702 C463.999967,62.9166357 463.854133,63.2708019 463.562468,63.5624677 C463.270802,63.8541335 462.916636,63.9999666 462.49997,63.9999666 L451.499996,63.9999666 C451.083331,63.9999666 450.729165,63.8541335 450.437499,63.5624677 C450.145833,63.2708019 450,62.9166357 450,62.4999702 L450,51.4999964 C450,51.0833309 450.145833,50.7291648 450.437499,50.437499 C450.729165,50.1458331 451.083331,50 451.499996,50 L462.49997,50 Z M455.124988,60.1249759 C456.020819,60.1249759 456.744775,59.8437265 457.296858,59.2812279 C457.84894,58.7187292 458.124981,57.9791475 458.124981,57.0624832 C458.124981,56.8958171 458.104147,56.7291505 458.062481,56.5624844 L455.124988,56.5624844 L455.124988,57.6249818 L456.906234,57.6249818 C456.843734,57.9374811 456.687484,58.2187304 456.437485,58.4687298 C456.104152,58.8020625 455.671861,58.9687286 455.140613,58.9687286 C454.609364,58.9687286 454.151032,58.7760206 453.765616,58.390605 C453.3802,58.0051894 453.187492,57.5416485 453.187492,56.9999833 C453.187492,56.4583181 453.374992,55.9947772 453.749991,55.6093616 C454.12499,55.223946 454.572906,55.031238 455.093738,55.031238 C455.61457,55.031238 456.041652,55.1874876 456.374985,55.4999869 L457.218733,54.6874888 C456.635401,54.1458236 455.937486,53.8749908 455.124988,53.8749908 C454.270823,53.8749908 453.53645,54.1822815 452.921868,54.7968636 C452.307286,55.4114456 451.999995,56.1458188 451.999995,56.9999833 C451.999995,57.8541478 452.307286,58.588521 452.921868,59.2031031 C453.53645,59.8176851 454.270823,60.1249759 455.124988,60.1249759 Z M461.999971,57.562482 L461.999971,56.6562341 L461.093724,56.6562341 L461.093724,55.7499863 L460.187476,55.7499863 L460.187476,56.6562341 L459.281228,56.6562341 L459.281228,57.562482 L460.187476,57.562482 L460.187476,58.4687298 L461.093724,58.4687298 L461.093724,57.562482 L461.999971,57.562482 Z" id="-copy" fill="#DB4437"></path>
        <rect id="Rectangle-2-Copy" fill="#008FE5" x="300" y="50" width="14" height="14" rx="1"></rect>
        <path d="M306.442519,59.155582 C307.530289,59.155582 308.545526,59.1493889 309.560619,59.1580023 C310.130886,59.1628429 310.439131,59.4031645 310.491607,59.8480015 C310.558101,60.4110061 310.226278,60.7845866 309.610364,60.7914916 C308.448553,60.8045185 307.286453,60.7965458 306.124498,60.7965458 C305.789081,60.7965458 305.452873,60.8080778 305.118534,60.7890001 C304.701527,60.7652242 304.293793,60.6835747 304.094455,60.2576018 C303.894613,59.8307747 304.033424,59.4477265 304.309392,59.1001286 C305.419806,57.7017644 306.531513,56.3045391 307.642502,54.9066731 C307.708492,54.8236711 307.772255,54.7388894 307.836377,54.6558161 C307.768589,54.534374 307.660832,54.5887595 307.577014,54.5882612 C306.798423,54.5834918 306.019761,54.5889731 305.24117,54.58278 C305.063182,54.5813563 304.879946,54.5671904 304.708787,54.5227708 C304.347491,54.4290197 304.128241,54.14257 304.125365,53.8010941 C304.12249,53.4589775 304.335199,53.1691821 304.695488,53.0685972 C304.865713,53.0210454 305.04974,53.0045304 305.227584,53.0038186 C306.509372,52.9986932 307.791161,52.998978 309.072877,53.0031779 C309.299316,53.003961 309.52748,53.0096558 309.747378,53.0848275 C310.233323,53.2510452 310.447326,53.6946008 310.249713,54.1642815 C310.077619,54.5733123 309.803376,54.9209814 309.529637,55.2660166 C308.589951,56.4502554 307.646671,57.6317892 306.705116,58.8146755 C306.632009,58.9065758 306.561705,59.0006116 306.442519,59.155582" id="Fill-1-Copy" fill="#FFFFFF"></path>
        <path d="M355.843736,55.3124873 L358.812479,56.9999833 L355.843736,58.6874793 L355.843736,55.3124873 Z M363.999967,51.4999964 L363.999967,62.4999702 C363.999967,62.9166357 363.854133,63.2708019 363.562468,63.5624677 C363.270802,63.8541335 362.916636,63.9999666 362.49997,63.9999666 L351.499996,63.9999666 C351.083331,63.9999666 350.729165,63.8541335 350.437499,63.5624677 C350.145833,63.2708019 350,62.9166357 350,62.4999702 L350,51.4999964 C350,51.0833309 350.145833,50.7291648 350.437499,50.437499 C350.729165,50.1458331 351.083331,50 351.499996,50 L362.49997,50 C362.916636,50 363.270802,50.1458331 363.562468,50.437499 C363.854133,50.7291648 363.999967,51.0833309 363.999967,51.4999964 Z M362.68747,56.9999833 C362.68747,56.6666506 362.677053,56.3229014 362.65622,55.9687358 C362.614553,55.1979041 362.541637,54.624989 362.43747,54.2499899 C362.37497,53.9999905 362.255179,53.7864495 362.078096,53.6093664 C361.901013,53.4322833 361.687472,53.3124921 361.437473,53.2499923 C361.083307,53.145826 360.229142,53.0729092 358.874979,53.0312428 L356.999983,52.9999928 L355.124988,53.0312428 C353.770825,53.0729092 352.91666,53.145826 352.562494,53.2499923 C352.312494,53.3124921 352.098953,53.4322833 351.92187,53.6093664 C351.744787,53.7864495 351.624996,53.9999905 351.562496,54.2499899 C351.39583,54.8541549 351.312497,55.7708197 351.312497,56.9999833 L351.343747,58.0624808 C351.385413,58.8333124 351.45833,59.3958111 351.562496,59.7499768 C351.624996,59.9999762 351.744787,60.2135172 351.92187,60.3906002 C352.098953,60.5676833 352.312494,60.6874745 352.562494,60.7499744 C352.91666,60.8541406 353.770825,60.9270574 355.124988,60.9687238 L356.999983,60.9999738 L358.874979,60.9687238 C360.229142,60.9270574 361.083307,60.8541406 361.437473,60.7499744 C361.687472,60.6874745 361.901013,60.5676833 362.078096,60.3906002 C362.255179,60.2135172 362.37497,59.9999762 362.43747,59.7499768 C362.604136,59.1666447 362.68747,58.2499803 362.68747,56.9999833 Z" id="-copy" fill="#CC181E"></path>
        <path d="M100.437499,51.9687453 C100.309895,51.9687453 100.205078,51.9277298 100.123047,51.8456987 C100.041016,51.7636677 100,51.6588504 100,51.5312463 L100,50.437499 C100,50.309895 100.041016,50.2050776 100.123047,50.1230466 C100.205078,50.0410155 100.309895,50 100.437499,50 L111.812472,50 C111.940076,50 112.044893,50.0410155 112.126924,50.1230466 C112.208955,50.2050776 112.249971,50.309895 112.249971,50.437499 L112.249971,51.5312463 C112.249971,51.6588504 112.208955,51.7636677 112.126924,51.8456987 C112.044893,51.9277298 111.940076,51.9687453 111.812472,51.9687453 L100.437499,51.9687453 Z M100.437499,56.3437349 C100.309895,56.3437349 100.205078,56.3027193 100.123047,56.2206883 C100.041016,56.1386572 100,56.0338399 100,55.9062359 L100,54.8124885 C100,54.6848845 100.041016,54.5800672 100.123047,54.4980362 C100.205078,54.4160051 100.309895,54.3749896 100.437499,54.3749896 L111.812472,54.3749896 C111.940076,54.3749896 112.044893,54.4160051 112.126924,54.4980362 C112.208955,54.5800672 112.249971,54.6848845 112.249971,54.8124885 L112.249971,55.9062359 C112.249971,56.0338399 112.208955,56.1386572 112.126924,56.2206883 C112.044893,56.3027193 111.940076,56.3437349 111.812472,56.3437349 L100.437499,56.3437349 Z M100.437499,60.7187244 C100.309895,60.7187244 100.205078,60.6777089 100.123047,60.5956779 C100.041016,60.5136468 100,60.4088295 100,60.2812255 L100,59.1874781 C100,59.0598741 100.041016,58.9550568 100.123047,58.8730257 C100.205078,58.7909947 100.309895,58.7499791 100.437499,58.7499791 L111.812472,58.7499791 C111.940076,58.7499791 112.044893,58.7909947 112.126924,58.8730257 C112.208955,58.9550568 112.249971,59.0598741 112.249971,59.1874781 L112.249971,60.2812255 C112.249971,60.4088295 112.208955,60.5136468 112.126924,60.5956779 C112.044893,60.6777089 111.940076,60.7187244 111.812472,60.7187244 L100.437499,60.7187244 Z" id="" fill="#FFFFFF"></path>
        <path d="M100.437499,101.968745 C100.309895,101.968745 100.205078,101.92773 100.123047,101.845699 C100.041016,101.763668 100,101.65885 100,101.531246 L100,100.437499 C100,100.309895 100.041016,100.205078 100.123047,100.123047 C100.205078,100.041016 100.309895,100 100.437499,100 L111.812472,100 C111.940076,100 112.044893,100.041016 112.126924,100.123047 C112.208955,100.205078 112.249971,100.309895 112.249971,100.437499 L112.249971,101.531246 C112.249971,101.65885 112.208955,101.763668 112.126924,101.845699 C112.044893,101.92773 111.940076,101.968745 111.812472,101.968745 L100.437499,101.968745 Z M100.437499,106.343735 C100.309895,106.343735 100.205078,106.302719 100.123047,106.220688 C100.041016,106.138657 100,106.03384 100,105.906236 L100,104.812489 C100,104.684885 100.041016,104.580067 100.123047,104.498036 C100.205078,104.416005 100.309895,104.37499 100.437499,104.37499 L111.812472,104.37499 C111.940076,104.37499 112.044893,104.416005 112.126924,104.498036 C112.208955,104.580067 112.249971,104.684885 112.249971,104.812489 L112.249971,105.906236 C112.249971,106.03384 112.208955,106.138657 112.126924,106.220688 C112.044893,106.302719 111.940076,106.343735 111.812472,106.343735 L100.437499,106.343735 Z M100.437499,110.718724 C100.309895,110.718724 100.205078,110.677709 100.123047,110.595678 C100.041016,110.513647 100,110.408829 100,110.281225 L100,109.187478 C100,109.059874 100.041016,108.955057 100.123047,108.873026 C100.205078,108.790995 100.309895,108.749979 100.437499,108.749979 L111.812472,108.749979 C111.940076,108.749979 112.044893,108.790995 112.126924,108.873026 C112.208955,108.955057 112.249971,109.059874 112.249971,109.187478 L112.249971,110.281225 C112.249971,110.408829 112.208955,110.513647 112.126924,110.595678 C112.044893,110.677709 111.940076,110.718724 111.812472,110.718724 L100.437499,110.718724 Z" id="-copy" fill="#08496E"></path>
        <path d="M50,67.4374584 C50,64.2968406 50.7851547,61.3905978 52.3554631,58.7187292 C53.9257715,56.0468606 56.0468606,53.9257715 58.7187292,52.3554631 C61.3905978,50.7851547 64.2968406,50 67.4374584,50 C70.5780763,50 73.484319,50.7851547 76.1561876,52.3554631 C78.8280563,53.9257715 80.9491453,56.0468606 82.5194537,58.7187292 C84.0897621,61.3905978 84.8749169,64.2968406 84.8749169,67.4374584 C84.8749169,70.5780763 84.0897621,73.484319 82.5194537,76.1561876 C80.9491453,78.8280563 78.8280563,80.9491453 76.1561876,82.5194537 C73.484319,84.0897621 70.5780763,84.8749169 67.4374584,84.8749169 C64.2968406,84.8749169 61.3905978,84.0897621 58.7187292,82.5194537 C56.0468606,80.9491453 53.9257715,78.8280563 52.3554631,76.1561876 C50.7851547,73.484319 50,70.5780763 50,67.4374584 Z M70.531201,75.593689 L70.531201,67.4374584 L75.5233766,67.4374584 C75.8983754,67.4374584 76.1561876,67.2616776 76.2968123,66.9101159 C76.437437,66.5585543 76.3671246,66.2421488 76.0858753,65.9608994 L68.0702694,57.9452936 C67.8827695,57.8046689 67.6718325,57.7343566 67.4374584,57.7343566 C67.2030843,57.7343566 67.0155844,57.8046689 66.8749598,57.9452936 L58.7890415,65.9608994 C58.5077922,66.2421488 58.4374799,66.5585543 58.5781045,66.9101159 C58.7187292,67.2616776 58.9765415,67.4374584 59.3515402,67.4374584 L64.3437158,67.4374584 L64.3437158,75.593689 C64.3437158,75.8280631 64.4257472,76.0272821 64.589809,76.1913438 C64.7538707,76.3554056 64.9530897,76.437437 65.1874638,76.437437 L69.6874531,76.437437 C69.9218271,76.437437 70.1210461,76.3554056 70.2851079,76.1913438 C70.4491696,76.0272821 70.531201,75.8280631 70.531201,75.593689 Z" id="" fill="#000000" opacity="0.600000024"></path>
        <path d="M19.8749526,110.080139 C20.3749517,110.361388 20.7108879,110.752012 20.8827627,111.252011 C21.0546375,111.75201 21.0546375,112.252009 20.8827627,112.752008 C20.7108879,113.252007 20.3749517,113.642631 19.8749526,113.92388 L3.37499195,123.673857 C2.90624307,123.955106 2.40624402,124.048856 1.87499553,123.955106 C1.34374703,123.861356 0.898435596,123.611357 0.539061215,123.205108 C0.179686833,122.798859 0,122.314485 0,121.751986 L0,102.252033 C0,101.627034 0.187499553,101.119223 0.562498659,100.728599 C0.937497765,100.337975 1.39062192,100.103601 1.92187042,100.025476 C2.45311891,99.9473505 2.93749323,100.048913 3.37499195,100.330162 L19.8749526,110.080139 Z" id="" fill="#000000"></path>
        <path d="M19.8749526,160.080139 C20.3749517,160.361388 20.7108879,160.752012 20.8827627,161.252011 C21.0546375,161.75201 21.0546375,162.252009 20.8827627,162.752008 C20.7108879,163.252007 20.3749517,163.642631 19.8749526,163.92388 L3.37499195,173.673857 C2.90624307,173.955106 2.40624402,174.048856 1.87499553,173.955106 C1.34374703,173.861356 0.898435596,173.611357 0.539061215,173.205108 C0.179686833,172.798859 0,172.314485 0,171.751986 L0,152.252033 C0,151.627034 0.187499553,151.119223 0.562498659,150.728599 C0.937497765,150.337975 1.39062192,150.103601 1.92187042,150.025476 C2.45311891,149.947351 2.93749323,150.048913 3.37499195,150.330162 L19.8749526,160.080139 Z" id="-copy" fill="#FFFFFF"></path>
        <path d="M160.921849,56.7265465 C161.031224,57.2421702 160.960911,57.7343566 160.710912,58.2031054 C160.742162,58.4687297 160.722631,58.7421667 160.652318,59.023416 C160.582006,59.3046653 160.468725,59.5546648 160.312475,59.7734142 C160.29685,60.4609124 160.078101,60.9921613 159.656227,61.3671604 C159.203103,61.7890344 158.539042,61.9999714 157.664044,61.9999714 L157.14842,61.9999714 C156.492172,61.9999714 155.890611,61.9296591 155.343737,61.7890344 C155.031238,61.7109097 154.640614,61.5780974 154.171865,61.3905978 C153.890616,61.281223 153.687491,61.2030983 153.562492,61.1562234 C153.359367,61.0937234 153.164055,61.0624736 152.976555,61.0624736 C152.929681,61.2187234 152.839837,61.3515353 152.707025,61.4609102 C152.574212,61.570285 152.421869,61.6249723 152.249995,61.6249723 L150.749998,61.6249723 C150.546874,61.6249723 150.371093,61.5507536 150.222656,61.4023166 C150.074219,61.2538795 150,61.0780987 150,60.8749741 L150,55.2499875 C150,55.0468628 150.074219,54.871082 150.222656,54.722645 C150.371093,54.574208 150.546874,54.4999893 150.749998,54.4999893 L153.070305,54.4999893 C153.226555,54.3593646 153.492179,54.0429591 153.867178,53.5507728 C154.242177,53.0585865 154.515614,52.7265559 154.687489,52.5546814 C154.749989,52.4921814 154.820301,52.2656197 154.898426,51.8749955 C155.03905,51.3124969 155.179675,50.906248 155.3203,50.6562484 C155.570299,50.2187494 155.914048,50 156.351547,50 C157.054671,50 157.601544,50.1953119 157.992168,50.5859361 C158.398417,51.0078101 158.601542,51.6328087 158.601542,52.4609316 C158.601542,52.8203057 158.53123,53.17968 158.390605,53.5390541 L159.234353,53.5390541 C159.796852,53.5390541 160.273413,53.7421787 160.664037,54.1484276 C161.054661,54.5546765 161.249973,55.0234254 161.249973,55.5546743 C161.249973,55.9609232 161.140598,56.3515474 160.921849,56.7265465 Z M159.492165,57.9921684 C159.726539,57.757794 159.847633,57.4882634 159.855445,57.1835766 C159.863258,56.8788898 159.781227,56.6327967 159.609352,56.4452971 C159.718727,56.4452971 159.832008,56.3515474 159.949195,56.1640478 C160.066382,55.9765483 160.124976,55.7734236 160.124976,55.5546743 C160.124976,55.3359249 160.039038,55.1328003 159.867164,54.9453007 C159.69529,54.7578012 159.484353,54.6640514 159.234353,54.6640514 L156.796859,54.6640514 C156.796859,54.4765518 156.835921,54.2812399 156.914046,54.0781153 C156.945296,53.9687404 157.015608,53.8046783 157.124983,53.585929 C157.234358,53.3671796 157.312483,53.1953048 157.359357,53.0703052 C157.437482,52.8671805 157.476545,52.6640563 157.476545,52.4609316 C157.476545,52.0546827 157.42967,51.7578083 157.33592,51.5703088 C157.164046,51.2734343 156.835921,51.1249973 156.351547,51.1249973 C156.273423,51.2187471 156.20311,51.3515594 156.14061,51.5234339 C156.109361,51.6171836 156.070298,51.7812458 156.023423,52.0156202 C155.960923,52.3281193 155.906236,52.5624938 155.859361,52.7187435 C155.765611,52.968743 155.632799,53.17968 155.460924,53.3515545 C155.335925,53.4765541 155.109363,53.7578034 154.781239,54.1953025 C154.437489,54.6640514 154.179677,54.9843632 154.007803,55.1562377 C153.710929,55.4687368 153.460929,55.6249866 153.257805,55.6249866 L152.999993,55.6249866 L152.999993,59.9843512 C153.265617,59.9843512 153.554679,60.0234137 153.867178,60.1015384 C154.054678,60.1484133 154.335927,60.2421631 154.710926,60.3827877 C155.179675,60.5390375 155.539049,60.648412 155.789049,60.710912 C156.210923,60.8202868 156.624984,60.8749741 157.031233,60.8749741 L157.898419,60.8749741 C158.351542,60.8749741 158.687479,60.7577869 158.906229,60.5234124 C159.156228,60.2734129 159.242165,59.8749763 159.164041,59.3281028 C159.35154,59.2187279 159.484353,59.0273223 159.562477,58.7538854 C159.640602,58.4804484 159.617164,58.2265429 159.492165,57.9921684 Z M152.062495,60.1249759 C152.062495,59.9687261 152.007808,59.8359142 151.898433,59.7265393 C151.789058,59.6171645 151.656246,59.5624772 151.499996,59.5624772 C151.343747,59.5624772 151.210935,59.6171645 151.10156,59.7265393 C150.992185,59.8359142 150.937498,59.9687261 150.937498,60.1249759 C150.937498,60.2812256 150.992185,60.4140376 151.10156,60.5234124 C151.210935,60.6327873 151.343747,60.6874745 151.499996,60.6874745 C151.656246,60.6874745 151.789058,60.6327873 151.898433,60.5234124 C152.007808,60.4140376 152.062495,60.2812256 152.062495,60.1249759 Z" id="" fill="#3B5998"></path>
        <path d="M165.236571,113.249968 C165.236571,113.458301 165.163654,113.635384 165.017821,113.781217 C164.871988,113.92705 164.694906,113.999967 164.486573,113.999967 L160.861581,113.999967 C160.757415,113.999967 160.668873,113.963508 160.595957,113.890592 C160.52304,113.817676 160.486582,113.729134 160.486582,113.624968 L160.486582,110.124976 C160.486582,110.02081 160.450124,109.932268 160.377207,109.859351 C160.304291,109.786435 160.215749,109.749977 160.111583,109.749977 L157.861588,109.749977 C157.757422,109.749977 157.66888,109.786435 157.595964,109.859351 C157.523048,109.932268 157.486589,110.02081 157.486589,110.124976 L157.486589,113.624968 C157.486589,113.729134 157.450131,113.817676 157.377215,113.890592 C157.304298,113.963508 157.215756,113.999967 157.11159,113.999967 L153.486599,113.999967 C153.278266,113.999967 153.101183,113.92705 152.95535,113.781217 C152.809517,113.635384 152.736601,113.458301 152.736601,113.249968 L152.736601,108.781229 C152.736601,108.656229 152.778267,108.552063 152.8616,108.46873 L158.736586,103.656241 C158.81992,103.593741 158.903252,103.562492 158.986586,103.562492 C159.069919,103.562492 159.153252,103.593741 159.236585,103.656241 L165.111571,108.46873 C165.194904,108.552063 165.236571,108.656229 165.236571,108.781229 L165.236571,113.249968 Z M167.861565,106.874984 C167.924064,106.937483 167.960523,107.020817 167.970939,107.124983 C167.981356,107.229149 167.955314,107.322899 167.892814,107.406232 L167.111566,108.37498 C167.049066,108.458313 166.965733,108.49998 166.861567,108.49998 C166.757401,108.49998 166.663651,108.46873 166.580318,108.40623 L159.236585,102.374994 C159.153252,102.312494 159.069919,102.281245 158.986586,102.281245 C158.903252,102.281245 158.81992,102.312494 158.736586,102.374994 L151.392854,108.40623 C151.30952,108.46873 151.215771,108.49998 151.111604,108.49998 C151.007438,108.49998 150.924105,108.458313 150.861605,108.37498 L150.080357,107.406232 C150.017857,107.322899 149.991816,107.229149 150.002232,107.124983 C150.012649,107.020817 150.049107,106.937483 150.111607,106.874984 L158.049088,100.343749 C158.319921,100.114583 158.63242,100 158.986586,100 C159.340751,100 159.663668,100.114583 159.955333,100.343749 L162.736577,102.656244 L162.736577,100.374999 C162.736577,100.270833 162.773035,100.182291 162.845951,100.109375 C162.918868,100.036458 163.00741,100 163.111576,100 L164.861572,100 C164.965738,100 165.05428,100.036458 165.127196,100.109375 C165.200112,100.182291 165.236571,100.270833 165.236571,100.374999 L165.236571,104.718739 L167.861565,106.874984 Z" id="" fill="#F7F9F9"></path>
        <path d="M57,100 C58.2607528,100 59.4274194,100.315188 60.5,100.945565 C61.5725806,101.575941 62.4240593,102.427419 63.0544355,103.5 C63.6848117,104.572581 64,105.739247 64,107 C64,108.260753 63.6848117,109.427419 63.0544355,110.5 C62.4240593,111.572581 61.5725806,112.424059 60.5,113.054435 C59.4274194,113.684812 58.2607528,114 57,114 C55.7392472,114 54.5725806,113.684812 53.5,113.054435 C52.4274194,112.424059 51.5759407,111.572581 50.9455645,110.5 C50.3151883,109.427419 50,108.260753 50,107 C50,105.739247 50.3151883,104.572581 50.9455645,103.5 C51.5759407,102.427419 52.4274194,101.575941 53.5,100.945565 C54.5725806,100.315188 55.7392472,100 57,100 Z M60.2741935,107.677419 C60.5,107.545699 60.6129032,107.348118 60.6129032,107.084677 C60.6129032,106.821237 60.5,106.623656 60.2741935,106.491935 L55.3064516,103.471774 C55.0806452,103.340054 54.8548387,103.340054 54.6290323,103.471774 C54.4032258,103.603495 54.2903226,103.801075 54.2903226,104.064516 L54.2903226,109.935484 C54.2903226,110.198925 54.4032258,110.396505 54.6290323,110.528226 C54.8548387,110.659946 55.0806452,110.659946 55.3064516,110.528226 L60.2741935,107.677419 Z" id="" fill="#FFFFFF"></path>
        <g id="Group-6" transform="translate(0.000000, 200.000000)">
            <rect id="Rectangle-22" fill="#3B5998" x="0" y="0" width="120" height="30" rx="2"></rect>
            <path d="M46.232,20 L46.232,10.032 L52.392,10.032 L52.392,10.998 L47.366,10.998 L47.366,14.456 L52.112,14.456 L52.112,15.422 L47.366,15.422 L47.366,20 L46.232,20 Z M60.176,12.958 L60.176,20 L59.056,20 L59.056,18.726 C58.8506656,19.1646689 58.5403354,19.5029988 58.125,19.741 C57.7096646,19.9790012 57.2266694,20.098 56.676,20.098 C56.0506635,20.098 55.5023357,19.9486682 55.031,19.65 C54.5596643,19.3513318 54.195668,18.9290027 53.939,18.383 C53.682332,17.8369973 53.554,17.2000036 53.554,16.472 C53.554,15.7439964 53.6846654,15.1023361 53.946,14.547 C54.2073346,13.9916639 54.5736643,13.5600015 55.045,13.252 C55.5163357,12.9439985 56.0599969,12.79 56.676,12.79 C57.2266694,12.79 57.7073313,12.9113321 58.118,13.154 C58.5286687,13.3966679 58.8413323,13.7373311 59.056,14.176 L59.056,12.958 L60.176,12.958 Z M58.496,18.453 C58.8693352,17.9816643 59.056,17.3120043 59.056,16.444 C59.056,15.5759957 58.8693352,14.908669 58.496,14.442 C58.1226648,13.975331 57.5906701,13.742 56.9,13.742 C56.2093299,13.742 55.6703353,13.9823309 55.283,14.463 C54.8956647,14.9436691 54.702,15.613329 54.702,16.472 C54.702,17.330671 54.8933314,17.993331 55.276,18.46 C55.6586686,18.926669 56.1999965,19.16 56.9,19.16 C57.5906701,19.16 58.1226648,18.9243357 58.496,18.453 Z M63.543,19.65 C63.0343308,19.3513318 62.6423347,18.9290027 62.367,18.383 C62.0916653,17.8369973 61.954,17.2000036 61.954,16.472 C61.954,15.7439964 62.0939986,15.1023361 62.374,14.547 C62.6540014,13.9916639 63.0529974,13.5600015 63.571,13.252 C64.0890026,12.9439985 64.6933299,12.79 65.384,12.79 C65.8600024,12.79 66.3196645,12.8716658 66.763,13.035 C67.2063356,13.1983342 67.5726652,13.4246652 67.862,13.714 L67.484,14.554 C67.1293316,14.2739986 66.786335,14.0686673 66.455,13.938 C66.123665,13.8073327 65.7853351,13.742 65.44,13.742 C64.7213297,13.742 64.1566687,13.9823309 63.746,14.463 C63.3353313,14.9436691 63.13,15.613329 63.13,16.472 C63.13,17.3213376 63.332998,17.9816643 63.739,18.453 C64.145002,18.9243357 64.7119964,19.16 65.44,19.16 C65.7853351,19.16 66.123665,19.0946673 66.455,18.964 C66.786335,18.8333327 67.1293316,18.6280014 67.484,18.348 L67.862,19.188 C67.5633318,19.4680014 67.1876689,19.6896659 66.735,19.853 C66.2823311,20.0163341 65.8133358,20.098 65.328,20.098 C64.6466633,20.098 64.0516692,19.9486682 63.543,19.65 Z M75.198,16.444 L70.032,16.444 C70.0413334,17.3400045 70.248998,18.0166644 70.655,18.474 C71.061002,18.9313356 71.6513295,19.16 72.426,19.16 C73.2473374,19.16 74.0033299,18.8846694 74.694,18.334 L75.072,19.16 C74.7639985,19.4493348 74.3696691,19.6779992 73.889,19.846 C73.4083309,20.0140008 72.9160025,20.098 72.412,20.098 C71.3106612,20.098 70.4473365,19.7736699 69.822,19.125 C69.1966635,18.4763301 68.884,17.587339 68.884,16.458 C68.884,15.7393297 69.0239986,15.1023361 69.304,14.547 C69.5840014,13.9916639 69.9759975,13.5600015 70.48,13.252 C70.9840025,12.9439985 71.5579968,12.79 72.202,12.79 C73.135338,12.79 73.8679973,13.0956636 74.4,13.707 C74.9320027,14.3183364 75.198,15.1606613 75.198,16.234 L75.198,16.444 Z M70.781,14.204 C70.4123315,14.5586684 70.1766672,15.0579968 70.074,15.702 L74.176,15.702 C74.1199997,15.03933 73.926335,14.5353351 73.595,14.19 C73.263665,13.8446649 72.8040029,13.672 72.216,13.672 C71.6279971,13.672 71.1496685,13.8493316 70.781,14.204 Z M82.072,13.238 C82.5480024,13.5366682 82.9166654,13.9589973 83.178,14.505 C83.4393346,15.0510027 83.57,15.6879964 83.57,16.416 C83.57,17.1440036 83.4393346,17.7856639 83.178,18.341 C82.9166654,18.8963361 82.5480024,19.3279985 82.072,19.636 C81.5959976,19.9440015 81.0500031,20.098 80.434,20.098 C79.8833306,20.098 79.4026687,19.9766679 78.992,19.734 C78.5813313,19.4913321 78.2686677,19.1460022 78.054,18.698 L78.054,20 L76.92,20 L76.92,9.696 L78.054,9.696 L78.054,14.204 C78.2593344,13.7466644 78.5696646,13.3966679 78.985,13.154 C79.4003354,12.9113321 79.8833306,12.79 80.434,12.79 C81.0500031,12.79 81.5959976,12.9393318 82.072,13.238 Z M81.82,18.439 C82.2026686,17.9583309 82.394,17.2840043 82.394,16.416 C82.394,15.5666624 82.2050019,14.908669 81.827,14.442 C81.4489981,13.975331 80.9146701,13.742 80.224,13.742 C79.5239965,13.742 78.9873352,13.975331 78.614,14.442 C78.2406648,14.908669 78.054,15.5759957 78.054,16.444 C78.054,17.3120043 78.2406648,17.9816643 78.614,18.453 C78.9873352,18.9243357 79.5239965,19.16 80.224,19.16 C80.9053367,19.16 81.4373314,18.9196691 81.82,18.439 Z M86.482,19.65 C85.9779975,19.3513318 85.5883347,18.9266694 85.313,18.376 C85.0376653,17.8253306 84.9,17.181337 84.9,16.444 C84.9,15.706663 85.0376653,15.0626694 85.313,14.512 C85.5883347,13.9613306 85.9779975,13.5366682 86.482,13.238 C86.9860025,12.9393318 87.56933,12.79 88.232,12.79 C88.89467,12.79 89.4779975,12.9393318 89.982,13.238 C90.4860025,13.5366682 90.8756653,13.9613306 91.151,14.512 C91.4263347,15.0626694 91.564,15.706663 91.564,16.444 C91.564,17.181337 91.4263347,17.8253306 91.151,18.376 C90.8756653,18.9266694 90.4860025,19.3513318 89.982,19.65 C89.4779975,19.9486682 88.89467,20.098 88.232,20.098 C87.56933,20.098 86.9860025,19.9486682 86.482,19.65 Z M89.842,18.467 C90.2153352,18.0049977 90.402,17.3306711 90.402,16.444 C90.402,15.585329 90.2106686,14.9203357 89.828,14.449 C89.4453314,13.9776643 88.9133367,13.742 88.232,13.742 C87.5413299,13.742 87.0046686,13.9776643 86.622,14.449 C86.2393314,14.9203357 86.048,15.585329 86.048,16.444 C86.048,17.3306711 86.2369981,18.0049977 86.615,18.467 C86.9930019,18.9290023 87.5319965,19.16 88.232,19.16 C88.9320035,19.16 89.4686648,18.9290023 89.842,18.467 Z M94.49,19.65 C93.9859975,19.3513318 93.5963347,18.9266694 93.321,18.376 C93.0456653,17.8253306 92.908,17.181337 92.908,16.444 C92.908,15.706663 93.0456653,15.0626694 93.321,14.512 C93.5963347,13.9613306 93.9859975,13.5366682 94.49,13.238 C94.9940025,12.9393318 95.57733,12.79 96.24,12.79 C96.90267,12.79 97.4859975,12.9393318 97.99,13.238 C98.4940025,13.5366682 98.8836653,13.9613306 99.159,14.512 C99.4343347,15.0626694 99.572,15.706663 99.572,16.444 C99.572,17.181337 99.4343347,17.8253306 99.159,18.376 C98.8836653,18.9266694 98.4940025,19.3513318 97.99,19.65 C97.4859975,19.9486682 96.90267,20.098 96.24,20.098 C95.57733,20.098 94.9940025,19.9486682 94.49,19.65 Z M97.85,18.467 C98.2233352,18.0049977 98.41,17.3306711 98.41,16.444 C98.41,15.585329 98.2186686,14.9203357 97.836,14.449 C97.4533314,13.9776643 96.9213367,13.742 96.24,13.742 C95.5493299,13.742 95.0126686,13.9776643 94.63,14.449 C94.2473314,14.9203357 94.056,15.585329 94.056,16.444 C94.056,17.3306711 94.2449981,18.0049977 94.623,18.467 C95.0010019,18.9290023 95.5399965,19.16 96.24,19.16 C96.9400035,19.16 97.4766648,18.9290023 97.85,18.467 Z M107.566,20 L106.082,20 L102.47,16.612 L102.47,20 L101.336,20 L101.336,9.696 L102.47,9.696 L102.47,16.192 L105.788,12.972 L107.23,12.972 L103.702,16.346 L107.566,20 Z" id="Facebook" fill="#FFFFFF"></path>
            <path d="M13.1054637,21.7499958 L13.1054637,15.488292 L11,15.488292 L11,13.0000167 L13.1054637,13.0000167 L13.1054637,11.0312714 C13.1054637,9.99221136 13.3971298,9.18557266 13.9804616,8.61135528 C14.5637934,8.0371379 15.3385315,7.75002921 16.3046749,7.75002921 C17.0885273,7.75002921 17.7265465,7.78648731 18.2187328,7.85940395 L18.2187328,10.0742424 L16.9062359,10.0742424 C16.4140496,10.0742424 16.076811,10.1836172 15.8945196,10.4023666 C15.7486867,10.584658 15.6757701,10.8763237 15.6757701,11.2773645 L15.6757701,13.0000167 L17.9999833,13.0000167 L17.6718591,15.488292 L15.6757701,15.488292 L15.6757701,21.7499958 L13.1054637,21.7499958 Z" id="" fill="#FFFFFF"></path>
            <rect id="Rectangle-23" fill="#FFFFFF" opacity="0.200000003" x="30" y="8" width="1" height="15"></rect>
        </g>
        <g id="Group-6-Copy-5" transform="translate(150.000000, 200.000000)">
            <rect id="Rectangle-22" fill="#54ACEF" x="0" y="0" width="120" height="30" rx="2"></rect>
            <path d="M55.928,20 L55.928,11.012 L52.456,11.012 L52.456,10.032 L60.562,10.032 L60.562,11.012 L57.09,11.012 L57.09,20 L55.928,20 Z M71.398,12.958 L72.518,12.958 L69.914,20 L68.822,20 L66.806,14.498 L64.804,20 L63.712,20 L61.108,12.958 L62.298,12.958 L64.286,18.642 L66.344,12.958 L67.338,12.958 L69.368,18.656 L71.398,12.958 Z M73.988,20 L73.988,12.958 L75.122,12.958 L75.122,20 L73.988,20 Z M73.876,9.976 L75.262,9.976 L75.262,11.264 L73.876,11.264 L73.876,9.976 Z M78.832,13.854 L78.832,17.704 C78.832,18.2266693 78.9393323,18.5929989 79.154,18.803 C79.3686677,19.013001 79.671998,19.118 80.064,19.118 C80.3253346,19.118 80.5773321,19.0760004 80.82,18.992 L80.82,19.958 C80.5306652,20.0513338 80.2040018,20.098 79.84,20.098 C79.1679966,20.098 78.6430019,19.9090019 78.265,19.531 C77.8869981,19.1529981 77.698,18.595337 77.698,17.858 L77.698,13.854 L76.326,13.854 L76.326,12.958 L77.698,12.958 L77.698,11.152 L78.832,10.746 L78.832,12.958 L80.848,12.958 L80.848,13.854 L78.832,13.854 Z M83.732,13.854 L83.732,17.704 C83.732,18.2266693 83.8393323,18.5929989 84.054,18.803 C84.2686677,19.013001 84.571998,19.118 84.964,19.118 C85.2253346,19.118 85.4773321,19.0760004 85.72,18.992 L85.72,19.958 C85.4306652,20.0513338 85.1040018,20.098 84.74,20.098 C84.0679966,20.098 83.5430019,19.9090019 83.165,19.531 C82.7869981,19.1529981 82.598,18.595337 82.598,17.858 L82.598,13.854 L81.226,13.854 L81.226,12.958 L82.598,12.958 L82.598,11.152 L83.732,10.746 L83.732,12.958 L85.748,12.958 L85.748,13.854 L83.732,13.854 Z M93.014,16.444 L87.848,16.444 C87.8573334,17.3400045 88.064998,18.0166644 88.471,18.474 C88.877002,18.9313356 89.4673295,19.16 90.242,19.16 C91.0633374,19.16 91.8193299,18.8846694 92.51,18.334 L92.888,19.16 C92.5799985,19.4493348 92.1856691,19.6779992 91.705,19.846 C91.2243309,20.0140008 90.7320025,20.098 90.228,20.098 C89.1266612,20.098 88.2633365,19.7736699 87.638,19.125 C87.0126635,18.4763301 86.7,17.587339 86.7,16.458 C86.7,15.7393297 86.8399986,15.1023361 87.12,14.547 C87.4000014,13.9916639 87.7919975,13.5600015 88.296,13.252 C88.8000025,12.9439985 89.3739968,12.79 90.018,12.79 C90.951338,12.79 91.6839973,13.0956636 92.216,13.707 C92.7480027,14.3183364 93.014,15.1606613 93.014,16.234 L93.014,16.444 Z M88.597,14.204 C88.2283315,14.5586684 87.9926672,15.0579968 87.89,15.702 L91.992,15.702 C91.9359997,15.03933 91.742335,14.5353351 91.411,14.19 C91.079665,13.8446649 90.6200029,13.672 90.032,13.672 C89.4439971,13.672 88.9656685,13.8493316 88.597,14.204 Z M98.656,12.874 L98.628,13.91 C98.4133323,13.835333 98.1660014,13.798 97.886,13.798 C97.2046633,13.798 96.698335,14.0103312 96.367,14.435 C96.035665,14.8596688 95.87,15.3753303 95.87,15.982 L95.87,20 L94.736,20 L94.736,14.932 C94.736,14.2039964 94.698667,13.5460029 94.624,12.958 L95.702,12.958 L95.814,14.26 C95.9913342,13.7839976 96.275998,13.4200013 96.668,13.168 C97.060002,12.9159987 97.5079975,12.79 98.012,12.79 C98.2453345,12.79 98.459999,12.8179997 98.656,12.874 Z" id="Twitter" fill="#FFFFFF"></path>
            <path d="M20.5644232,11.9062693 C20.5826525,11.9791859 20.5917669,12.0976751 20.5917669,12.2617372 C20.5917669,13.5742341 20.2727571,14.841158 19.6347379,16.0625094 C18.9784895,17.356777 18.0579186,18.3867226 16.8730258,19.1523458 C15.5787581,20.0091144 14.0930843,20.437499 12.4160051,20.437499 C10.8118421,20.437499 9.34439801,20.0091144 8.01367188,19.1523458 C8.21419209,19.170575 8.44205641,19.1796895 8.697264,19.1796895 C10.0279901,19.1796895 11.2219974,18.7695342 12.2792867,17.9492236 C11.6412675,17.9492236 11.080722,17.7623753 10.5976501,17.3886781 C10.1145782,17.0149809 9.78189696,16.5455813 9.59960559,15.9804783 C9.78189696,15.9987076 9.9550735,16.007822 10.1191356,16.007822 C10.3743432,16.007822 10.6295512,15.9804783 10.8847588,15.925791 C10.2285103,15.7799581 9.68163665,15.4427191 9.24413769,14.9140746 C8.80663873,14.3854302 8.58788926,13.7838691 8.58788926,13.1093914 L8.58788926,13.0547041 C8.98893011,13.2916828 9.41731422,13.4192864 9.87304244,13.4375156 C9.49023085,13.1640788 9.1803359,12.8177253 8.94335716,12.3984556 C8.70637842,11.9791859 8.58788926,11.5189003 8.58788926,11.0175995 C8.58788926,10.5162988 8.72460768,10.0377843 8.99804453,9.58205609 C9.70898033,10.4752833 10.5794208,11.1862191 11.6093664,11.7148635 C12.639312,12.2435079 13.7376164,12.535174 14.9042804,12.5898614 C14.8678223,12.3711119 14.8495931,12.1523625 14.8495931,11.933613 C14.8495931,11.4231974 14.9771971,10.9446829 15.2324047,10.4980695 C15.4876122,10.0514561 15.8339657,9.70054525 16.2714647,9.44533766 C16.7089636,9.19013008 17.1829207,9.06252608 17.6933363,9.06252608 C18.112606,9.06252608 18.499975,9.14455713 18.8554429,9.30861924 C19.2109108,9.47268135 19.5253632,9.69143083 19.7988,9.96486768 C20.4550485,9.83726367 21.065724,9.60939977 21.6308269,9.28127556 C21.4120774,9.95575325 20.9928077,10.4843977 20.3730174,10.8672093 C20.9198911,10.7942926 21.4667648,10.6393454 22.0136385,10.4023666 C21.6125976,10.9856984 21.1295262,11.4869996 20.5644232,11.9062693 Z" id="" fill="#FFFFFF"></path>
            <rect id="Rectangle-23" fill="#FFFFFF" opacity="0.200000003" x="30" y="8" width="1" height="15"></rect>
        </g>
        <g id="Group-6-Copy-3" transform="translate(300.000000, 200.000000)">
            <rect id="Rectangle-22" fill="#008FE5" x="0" y="0" width="120" height="30" rx="2"></rect>
            <path d="M63.418,19.034 L69.27,19.034 L69.27,20 L62.088,20 L62.088,19.146 L67.8,10.998 L62.088,10.998 L62.088,10.032 L69.13,10.032 L69.13,10.872 L63.418,19.034 Z M77.096,12.958 L77.096,20 L75.976,20 L75.976,18.726 C75.7706656,19.1646689 75.4603354,19.5029988 75.045,19.741 C74.6296646,19.9790012 74.1466694,20.098 73.596,20.098 C72.9706635,20.098 72.4223357,19.9486682 71.951,19.65 C71.4796643,19.3513318 71.115668,18.9290027 70.859,18.383 C70.6023321,17.8369973 70.474,17.2000036 70.474,16.472 C70.474,15.7439964 70.6046654,15.1023361 70.866,14.547 C71.1273346,13.9916639 71.4936643,13.5600015 71.965,13.252 C72.4363357,12.9439985 72.9799969,12.79 73.596,12.79 C74.1466694,12.79 74.6273313,12.9113321 75.038,13.154 C75.4486687,13.3966679 75.7613323,13.7373311 75.976,14.176 L75.976,12.958 L77.096,12.958 Z M75.416,18.453 C75.7893352,17.9816643 75.976,17.3120043 75.976,16.444 C75.976,15.5759957 75.7893352,14.908669 75.416,14.442 C75.0426648,13.975331 74.5106701,13.742 73.82,13.742 C73.1293299,13.742 72.5903353,13.9823309 72.203,14.463 C71.8156647,14.9436691 71.622,15.613329 71.622,16.472 C71.622,17.330671 71.8133314,17.993331 72.196,18.46 C72.5786686,18.926669 73.1199965,19.16 73.82,19.16 C74.5106701,19.16 75.0426648,18.9243357 75.416,18.453 Z M79.294,20 L79.294,9.696 L80.428,9.696 L80.428,20 L79.294,20 Z M83.788,19.65 C83.2839975,19.3513318 82.8943347,18.9266694 82.619,18.376 C82.3436653,17.8253306 82.206,17.181337 82.206,16.444 C82.206,15.706663 82.3436653,15.0626694 82.619,14.512 C82.8943347,13.9613306 83.2839975,13.5366682 83.788,13.238 C84.2920025,12.9393318 84.87533,12.79 85.538,12.79 C86.20067,12.79 86.7839975,12.9393318 87.288,13.238 C87.7920025,13.5366682 88.1816653,13.9613306 88.457,14.512 C88.7323347,15.0626694 88.87,15.706663 88.87,16.444 C88.87,17.181337 88.7323347,17.8253306 88.457,18.376 C88.1816653,18.9266694 87.7920025,19.3513318 87.288,19.65 C86.7839975,19.9486682 86.20067,20.098 85.538,20.098 C84.87533,20.098 84.2920025,19.9486682 83.788,19.65 Z M87.148,18.467 C87.5213352,18.0049977 87.708,17.3306711 87.708,16.444 C87.708,15.585329 87.5166686,14.9203357 87.134,14.449 C86.7513314,13.9776643 86.2193367,13.742 85.538,13.742 C84.8473299,13.742 84.3106686,13.9776643 83.928,14.449 C83.5453314,14.9203357 83.354,15.585329 83.354,16.444 C83.354,17.3306711 83.5429981,18.0049977 83.921,18.467 C84.2990019,18.9290023 84.8379965,19.16 85.538,19.16 C86.2380035,19.16 86.7746648,18.9290023 87.148,18.467 Z" id="Zalo" fill="#FFFFFF"></path>
            <path d="M18.9443359,18.9472656 C18.9443359,19.6490921 18.4088595,20 17.3378906,20 L12.7851562,20 C11.723302,20 11.1923828,19.6217486 11.1923828,18.8652344 C11.1923828,18.5052065 11.4020161,18.0472033 11.8212891,17.4912109 L15.8818359,12.1044922 L12.9560547,12.1044922 C11.8805285,12.1044922 11.3427734,11.7626987 11.3427734,11.0791016 C11.3427734,10.3909471 11.8805285,10.046875 12.9560547,10.046875 L16.8046875,10.046875 C18.1035221,10.046875 18.7529297,10.4160119 18.7529297,11.1542969 C18.7529297,11.4824235 18.5319033,11.944984 18.0898438,12.5419922 L14.1318359,17.9013672 L17.3378906,17.9013672 C18.4088595,17.9013672 18.9443359,18.2499965 18.9443359,18.9472656 Z" id="Z" fill="#FFFFFF"></path>
            <rect id="Rectangle-23" fill="#FFFFFF" opacity="0.200000003" x="30" y="8" width="1" height="15"></rect>
        </g>
        <g id="Group-6-Copy-4" transform="translate(0.000000, 250.000000)">
            <rect id="Rectangle-22" fill="#979797" x="0" y="0" width="120" height="30" rx="2"></rect>
            <path d="M58.931,20 L58.931,10.032 L65.231,10.032 L65.231,10.984 L60.065,10.984 L60.065,14.456 L64.951,14.456 L64.951,15.422 L60.065,15.422 L60.065,19.048 L65.231,19.048 L65.231,20 L58.931,20 Z M77.173,15.576 L77.173,20 L76.039,20 L76.039,15.632 C76.039,14.96933 75.9246678,14.4886682 75.696,14.19 C75.4673322,13.8913318 75.0963359,13.742 74.583,13.742 C73.9856637,13.742 73.5190017,13.9426647 73.183,14.344 C72.8469983,14.7453353 72.679,15.2913299 72.679,15.982 L72.679,20 L71.545,20 L71.545,15.632 C71.545,14.9786634 71.4283345,14.5003349 71.195,14.197 C70.9616655,13.8936652 70.5883359,13.742 70.075,13.742 C69.4776637,13.742 69.0086684,13.9426647 68.668,14.344 C68.3273316,14.7453353 68.157,15.2913299 68.157,15.982 L68.157,20 L67.023,20 L67.023,14.932 C67.023,14.2039964 66.985667,13.5460029 66.911,12.958 L67.989,12.958 L68.101,14.19 C68.297001,13.7419978 68.5886647,13.3966679 68.976,13.154 C69.3633353,12.9113321 69.8136641,12.79 70.327,12.79 C70.8870028,12.79 71.3443316,12.9019989 71.699,13.126 C72.0536684,13.3500011 72.3149992,13.695331 72.483,14.162 C72.6976677,13.7419979 73.0126646,13.4083346 73.428,13.161 C73.8433354,12.9136654 74.3123307,12.79 74.835,12.79 C76.3936745,12.79 77.173,13.7186574 77.173,15.576 Z M85.531,12.958 L85.531,20 L84.411,20 L84.411,18.726 C84.2056656,19.1646689 83.8953354,19.5029988 83.48,19.741 C83.0646646,19.9790012 82.5816694,20.098 82.031,20.098 C81.4056635,20.098 80.8573357,19.9486682 80.386,19.65 C79.9146643,19.3513318 79.5506679,18.9290027 79.294,18.383 C79.037332,17.8369973 78.909,17.2000036 78.909,16.472 C78.909,15.7439964 79.0396654,15.1023361 79.301,14.547 C79.5623346,13.9916639 79.9286643,13.5600015 80.4,13.252 C80.8713357,12.9439985 81.4149969,12.79 82.031,12.79 C82.5816694,12.79 83.0623313,12.9113321 83.473,13.154 C83.8836687,13.3966679 84.1963323,13.7373311 84.411,14.176 L84.411,12.958 L85.531,12.958 Z M83.851,18.453 C84.2243352,17.9816643 84.411,17.3120043 84.411,16.444 C84.411,15.5759957 84.2243352,14.908669 83.851,14.442 C83.4776648,13.975331 82.9456701,13.742 82.255,13.742 C81.5643299,13.742 81.0253353,13.9823309 80.638,14.463 C80.2506647,14.9436691 80.057,15.613329 80.057,16.472 C80.057,17.330671 80.2483314,17.993331 80.631,18.46 C81.0136686,18.926669 81.5549965,19.16 82.255,19.16 C82.9456701,19.16 83.4776648,18.9243357 83.851,18.453 Z M87.729,20 L87.729,12.958 L88.863,12.958 L88.863,20 L87.729,20 Z M87.617,9.976 L89.003,9.976 L89.003,11.264 L87.617,11.264 L87.617,9.976 Z M91.061,20 L91.061,9.696 L92.195,9.696 L92.195,20 L91.061,20 Z" id="Email" fill="#FFFFFF"></path>
            <path d="M20.7011416,9.50002503 C21.065724,9.50002503 21.3756193,9.62762904 21.6308269,9.88283662 C21.8860345,10.1380442 22.0136385,10.4479396 22.0136385,10.8125219 L22.0136385,18.6875031 C22.0136385,19.0520855 21.8860345,19.3619808 21.6308269,19.6171884 C21.3756193,19.872396 21.065724,20 20.7011416,20 L9.32616875,20 C8.96158642,20 8.65169105,19.872396 8.39648346,19.6171884 C8.14127588,19.3619808 8.01367188,19.0520855 8.01367188,18.6875031 L8.01367188,10.8125219 C8.01367188,10.4479396 8.14127588,10.1380442 8.39648346,9.88283662 C8.65169105,9.62762904 8.96158642,9.50002503 9.32616875,9.50002503 L20.7011416,9.50002503 Z M20.7011416,10.8125219 L9.32616875,10.8125219 L9.32616875,11.933613 C9.96418792,12.4440286 11.1946537,13.410172 13.0175662,14.8320436 L13.2636594,15.050793 C13.6282417,15.360688 13.9199078,15.5794375 14.1386573,15.7070415 C14.4850108,15.9440202 14.7766764,16.0625094 15.0136552,16.0625094 C15.2506339,16.0625094 15.5422996,15.9440202 15.8886531,15.7070415 C16.1074026,15.5794375 16.3990687,15.360688 16.763651,15.050793 L17.0097442,14.8320436 C18.8326566,13.4284012 20.0631225,12.4622574 20.7011416,11.933613 L20.7011416,10.8125219 Z M9.32616875,18.6875031 L20.7011416,18.6875031 L20.7011416,13.6015778 L17.5292742,16.1171968 C17.073546,16.5000083 16.6998492,16.7734452 16.4081831,16.9375073 C15.9159968,17.2291734 15.4511541,17.3750063 15.0136552,17.3750063 C14.5761562,17.3750063 14.1021992,17.2291734 13.5917836,16.9375073 C13.3183467,16.7734452 12.9446496,16.5000083 12.4706925,16.1171968 L9.32616875,13.6015778 L9.32616875,18.6875031 Z" id="" fill="#FFFFFF"></path>
            <rect id="Rectangle-23" fill="#FFFFFF" opacity="0.200000003" x="30" y="8" width="1" height="15"></rect>
        </g>
        <g id="Group-6-Copy-6" transform="translate(150.000000, 250.000000)">
            <rect id="Rectangle-22" fill="#7C7C7C" x="0" y="0" width="120" height="30" rx="2"></rect>
            <path d="M48.963,19.496 C48.2676632,19.0853313 47.7333352,18.4950038 47.36,17.725 C46.9866648,16.9549961 46.8,16.0473386 46.8,15.002 C46.8,13.9566614 46.9866648,13.0536705 47.36,12.293 C47.7333352,11.5323295 48.2676632,10.9466687 48.963,10.536 C49.6583368,10.1253313 50.4773286,9.92 51.42,9.92 C52.1106701,9.92 52.7429971,10.024999 53.317,10.235 C53.8910029,10.445001 54.3879979,10.7599979 54.808,11.18 L54.374,12.062 C53.8979976,11.6513313 53.4290023,11.3573342 52.967,11.18 C52.5049977,11.0026658 51.9940028,10.914 51.434,10.914 C50.3419945,10.914 49.495003,11.2686631 48.893,11.978 C48.290997,12.6873369 47.99,13.6953268 47.99,15.002 C47.99,16.3180066 48.2886637,17.3329964 48.886,18.047 C49.4833363,18.7610036 50.3326612,19.118 51.434,19.118 C51.9940028,19.118 52.5049977,19.0293342 52.967,18.852 C53.4290023,18.6746658 53.8979976,18.3806687 54.374,17.97 L54.808,18.852 C54.3879979,19.2720021 53.8910029,19.586999 53.317,19.797 C52.7429971,20.007001 52.1106701,20.112 51.42,20.112 C50.4773286,20.112 49.6583368,19.9066687 48.963,19.496 Z M57.762,19.65 C57.2579975,19.3513318 56.8683347,18.9266694 56.593,18.376 C56.3176653,17.8253306 56.18,17.181337 56.18,16.444 C56.18,15.706663 56.3176653,15.0626694 56.593,14.512 C56.8683347,13.9613306 57.2579975,13.5366682 57.762,13.238 C58.2660025,12.9393318 58.84933,12.79 59.512,12.79 C60.17467,12.79 60.7579975,12.9393318 61.262,13.238 C61.7660025,13.5366682 62.1556653,13.9613306 62.431,14.512 C62.7063347,15.0626694 62.844,15.706663 62.844,16.444 C62.844,17.181337 62.7063347,17.8253306 62.431,18.376 C62.1556653,18.9266694 61.7660025,19.3513318 61.262,19.65 C60.7579975,19.9486682 60.17467,20.098 59.512,20.098 C58.84933,20.098 58.2660025,19.9486682 57.762,19.65 Z M61.122,18.467 C61.4953352,18.0049977 61.682,17.3306711 61.682,16.444 C61.682,15.585329 61.4906686,14.9203357 61.108,14.449 C60.7253314,13.9776643 60.1933367,13.742 59.512,13.742 C58.8213299,13.742 58.2846686,13.9776643 57.902,14.449 C57.5193314,14.9203357 57.328,15.585329 57.328,16.444 C57.328,17.3306711 57.5169981,18.0049977 57.895,18.467 C58.2730019,18.9290023 58.8119965,19.16 59.512,19.16 C60.2120035,19.16 60.7486648,18.9290023 61.122,18.467 Z M69.76,13.252 C70.2360024,13.5600015 70.6046654,13.9916639 70.866,14.547 C71.1273346,15.1023361 71.258,15.7439964 71.258,16.472 C71.258,17.2000036 71.1273346,17.8369973 70.866,18.383 C70.6046654,18.9290027 70.2383357,19.3513318 69.767,19.65 C69.2956643,19.9486682 68.7473365,20.098 68.122,20.098 C67.5713306,20.098 67.0906687,19.9766679 66.68,19.734 C66.2693313,19.4913321 65.9566677,19.1460022 65.742,18.698 L65.742,23.024 L64.608,23.024 L64.608,14.932 C64.608,14.2039964 64.570667,13.5460029 64.496,12.958 L65.574,12.958 L65.686,14.316 C65.882001,13.8306642 66.1923312,13.4550013 66.617,13.189 C67.0416688,12.9229987 67.5433304,12.79 68.122,12.79 C68.7380031,12.79 69.2839976,12.9439985 69.76,13.252 Z M69.515,18.46 C69.8930019,17.993331 70.082,17.330671 70.082,16.472 C70.082,15.613329 69.8906686,14.9436691 69.508,14.463 C69.1253314,13.9823309 68.5933367,13.742 67.912,13.742 C67.2119965,13.742 66.6753352,13.975331 66.302,14.442 C65.9286648,14.908669 65.742,15.5759957 65.742,16.444 C65.742,17.3120043 65.9286648,17.9816643 66.302,18.453 C66.6753352,18.9243357 67.2119965,19.16 67.912,19.16 C68.6026701,19.16 69.1369981,18.926669 69.515,18.46 Z M79.196,12.958 L75.906,20.644 C75.5606649,21.4466707 75.1266693,22.0346648 74.604,22.408 C74.0813307,22.7813352 73.4373372,23.0379993 72.672,23.178 L72.434,22.296 C73.09667,22.1466659 73.5983316,21.9483346 73.939,21.701 C74.2796684,21.4536654 74.5619989,21.0733359 74.786,20.56 L75.066,19.93 L72.084,12.958 L73.274,12.958 L75.654,18.768 L78.062,12.958 L79.196,12.958 Z M84.096,20 L84.096,9.696 L85.23,9.696 L85.23,20 L84.096,20 Z M87.428,20 L87.428,12.958 L88.562,12.958 L88.562,20 L87.428,20 Z M87.316,9.976 L88.702,9.976 L88.702,11.264 L87.316,11.264 L87.316,9.976 Z M96.808,15.576 L96.808,20 L95.674,20 L95.674,15.632 C95.674,14.9786634 95.5433346,14.5003349 95.282,14.197 C95.0206654,13.8936652 94.6100028,13.742 94.05,13.742 C93.3966634,13.742 92.874002,13.9426647 92.482,14.344 C92.089998,14.7453353 91.894,15.2866633 91.894,15.968 L91.894,20 L90.76,20 L90.76,14.932 C90.76,14.2039964 90.722667,13.5460029 90.648,12.958 L91.726,12.958 L91.838,14.218 C92.0526677,13.7606644 92.3746645,13.4083346 92.804,13.161 C93.2333355,12.9136654 93.7233306,12.79 94.274,12.79 C95.9633418,12.79 96.808,13.7186574 96.808,15.576 Z M105.18,20 L103.696,20 L100.084,16.612 L100.084,20 L98.95,20 L98.95,9.696 L100.084,9.696 L100.084,16.192 L103.402,12.972 L104.844,12.972 L101.316,16.346 L105.18,20 Z" id="Copy-link" fill="#FFFFFF"></path>
            <path d="M20.7558311,9.5547124 C21.0110387,9.80991999 21.1386427,10.1198154 21.1386427,10.4843977 L21.1386427,17.8125052 C21.1386427,18.1770875 21.0110387,18.4869829 20.7558311,18.7421905 C20.5006235,18.9973981 20.1907281,19.1250021 19.8261458,19.1250021 L17.638651,19.1250021 L17.638651,20.437499 C17.638651,20.8020813 17.511047,21.1119767 17.2558394,21.3671842 C17.0006318,21.6223918 16.6907365,21.7499958 16.3261541,21.7499958 L10.2011687,21.7499958 C9.83658642,21.7499958 9.52669105,21.6223918 9.27148346,21.3671842 C9.01627588,21.1119767 8.88867188,20.8020813 8.88867188,20.437499 L8.88867188,11.6875198 C8.88867188,11.3229375 9.01627588,11.0130421 9.27148346,10.7578345 C9.52669105,10.5026269 9.83658642,10.3750229 10.2011687,10.3750229 L12.3886635,10.3750229 L12.3886635,9.06252608 C12.3886635,8.69794375 12.5162675,8.38804838 12.7714751,8.13284079 C13.0266827,7.87763321 13.3365781,7.75002921 13.7011604,7.75002921 L18.4042742,7.75002921 C18.7688565,7.75002921 19.0787519,7.87763321 19.3339595,8.13284079 L20.7558311,9.5547124 Z M16.162092,20.437499 C16.1985501,20.437499 16.2350087,20.4192697 16.2714668,20.3828116 C16.3079249,20.3463535 16.3261541,20.309895 16.3261541,20.2734368 L16.3261541,19.1250021 L13.7011604,19.1250021 C13.3365781,19.1250021 13.0266827,18.9973981 12.7714751,18.7421905 C12.5162675,18.4869829 12.3886635,18.1770875 12.3886635,17.8125052 L12.3886635,11.6875198 L10.3652309,11.6875198 C10.3287727,11.6875198 10.2923142,11.7057491 10.2558561,11.7422072 C10.219398,11.7786653 10.2011687,11.8151238 10.2011687,11.8515819 L10.2011687,20.2734368 C10.2011687,20.309895 10.219398,20.3463535 10.2558561,20.3828116 C10.2923142,20.4192697 10.3287727,20.437499 10.3652309,20.437499 L16.162092,20.437499 Z M19.6620837,17.8125052 C19.6985418,17.8125052 19.7350003,17.794276 19.7714584,17.7578178 C19.8079165,17.7213597 19.8261458,17.6849012 19.8261458,17.6484431 L19.8261458,12.1250188 L17.4199015,12.1250188 C17.2376102,12.1250188 17.0826629,12.061217 16.9550589,11.933613 C16.8274549,11.806009 16.7636531,11.6510617 16.7636531,11.4687703 L16.7636531,9.06252608 L13.8652225,9.06252608 C13.8287644,9.06252608 13.7923059,9.08075534 13.7558478,9.11721345 C13.7193897,9.15367155 13.7011604,9.19013008 13.7011604,9.22658819 L13.7011604,17.6484431 C13.7011604,17.6849012 13.7193897,17.7213597 13.7558478,17.7578178 C13.7923059,17.794276 13.8287644,17.8125052 13.8652225,17.8125052 L19.6620837,17.8125052 Z M19.8261458,10.8125219 L19.8261458,10.5390851 C19.8261458,10.5026269 19.8079165,10.4661684 19.7714584,10.4297103 L18.4589616,9.11721345 C18.4225035,9.08075534 18.3860449,9.06252608 18.3495868,9.06252608 L18.07615,9.06252608 L18.07615,10.8125219 L19.8261458,10.8125219 Z" id="" fill="#FFFFFF"></path>
            <rect id="Rectangle-23" fill="#FFFFFF" opacity="0.200000003" x="30" y="8" width="1" height="15"></rect>
        </g>
        <rect id="Rectangle-22" fill="#3B5998" x="0" y="300" width="30" height="30" rx="2"></rect>
        <path d="M13.1054637,321.749996 L13.1054637,315.488292 L11,315.488292 L11,313.000017 L13.1054637,313.000017 L13.1054637,311.031271 C13.1054637,309.992211 13.3971298,309.185573 13.9804616,308.611355 C14.5637934,308.037138 15.3385315,307.750029 16.3046749,307.750029 C17.0885273,307.750029 17.7265465,307.786487 18.2187328,307.859404 L18.2187328,310.074242 L16.9062359,310.074242 C16.4140496,310.074242 16.076811,310.183617 15.8945196,310.402367 C15.7486867,310.584658 15.6757701,310.876324 15.6757701,311.277365 L15.6757701,313.000017 L17.9999833,313.000017 L17.6718591,315.488292 L15.6757701,315.488292 L15.6757701,321.749996 L13.1054637,321.749996 Z" id="" fill="#FFFFFF"></path>
        <rect id="Rectangle-22" fill="#54ACEF" x="50" y="300" width="30" height="30" rx="2"></rect>
        <path d="M70.5644232,311.906269 C70.5826525,311.979186 70.5917669,312.097675 70.5917669,312.261737 C70.5917669,313.574234 70.2727571,314.841158 69.6347379,316.062509 C68.9784895,317.356777 68.0579186,318.386723 66.8730258,319.152346 C65.5787581,320.009114 64.0930843,320.437499 62.4160051,320.437499 C60.8118421,320.437499 59.344398,320.009114 58.0136719,319.152346 C58.2141921,319.170575 58.4420564,319.179689 58.697264,319.179689 C60.0279901,319.179689 61.2219974,318.769534 62.2792867,317.949224 C61.6412675,317.949224 61.080722,317.762375 60.5976501,317.388678 C60.1145782,317.014981 59.781897,316.545581 59.5996056,315.980478 C59.781897,315.998708 59.9550735,316.007822 60.1191356,316.007822 C60.3743432,316.007822 60.6295512,315.980478 60.8847588,315.925791 C60.2285103,315.779958 59.6816366,315.442719 59.2441377,314.914075 C58.8066387,314.38543 58.5878893,313.783869 58.5878893,313.109391 L58.5878893,313.054704 C58.9889301,313.291683 59.4173142,313.419286 59.8730424,313.437516 C59.4902309,313.164079 59.1803359,312.817725 58.9433572,312.398456 C58.7063784,311.979186 58.5878893,311.5189 58.5878893,311.0176 C58.5878893,310.516299 58.7246077,310.037784 58.9980445,309.582056 C59.7089803,310.475283 60.5794208,311.186219 61.6093664,311.714864 C62.639312,312.243508 63.7376164,312.535174 64.9042804,312.589861 C64.8678223,312.371112 64.8495931,312.152362 64.8495931,311.933613 C64.8495931,311.423197 64.9771971,310.944683 65.2324047,310.49807 C65.4876122,310.051456 65.8339657,309.700545 66.2714647,309.445338 C66.7089636,309.19013 67.1829207,309.062526 67.6933363,309.062526 C68.112606,309.062526 68.499975,309.144557 68.8554429,309.308619 C69.2109108,309.472681 69.5253632,309.691431 69.7988,309.964868 C70.4550485,309.837264 71.065724,309.6094 71.6308269,309.281276 C71.4120774,309.955753 70.9928077,310.484398 70.3730174,310.867209 C70.9198911,310.794293 71.4667648,310.639345 72.0136385,310.402367 C71.6125976,310.985698 71.1295262,311.487 70.5644232,311.906269 Z" id="" fill="#FFFFFF"></path>
        <rect id="Rectangle-22" fill="#008FE5" x="100" y="300" width="30" height="30" rx="2"></rect>
        <path d="M118.944336,318.947266 C118.944336,319.649092 118.40886,320 117.337891,320 L112.785156,320 C111.723302,320 111.192383,319.621749 111.192383,318.865234 C111.192383,318.505207 111.402016,318.047203 111.821289,317.491211 L115.881836,312.104492 L112.956055,312.104492 C111.880528,312.104492 111.342773,311.762699 111.342773,311.079102 C111.342773,310.390947 111.880528,310.046875 112.956055,310.046875 L116.804688,310.046875 C118.103522,310.046875 118.75293,310.416012 118.75293,311.154297 C118.75293,311.482424 118.531903,311.944984 118.089844,312.541992 L114.131836,317.901367 L117.337891,317.901367 C118.40886,317.901367 118.944336,318.249997 118.944336,318.947266 Z" id="Z" fill="#FFFFFF"></path>
        <rect id="Rectangle-22" fill="#979797" x="150" y="300" width="30" height="30" rx="2"></rect>
        <path d="M170.701142,309.500025 C171.065724,309.500025 171.375619,309.627629 171.630827,309.882837 C171.886034,310.138044 172.013638,310.44794 172.013638,310.812522 L172.013638,318.687503 C172.013638,319.052085 171.886034,319.361981 171.630827,319.617188 C171.375619,319.872396 171.065724,320 170.701142,320 L159.326169,320 C158.961586,320 158.651691,319.872396 158.396483,319.617188 C158.141276,319.361981 158.013672,319.052085 158.013672,318.687503 L158.013672,310.812522 C158.013672,310.44794 158.141276,310.138044 158.396483,309.882837 C158.651691,309.627629 158.961586,309.500025 159.326169,309.500025 L170.701142,309.500025 Z M170.701142,310.812522 L159.326169,310.812522 L159.326169,311.933613 C159.964188,312.444029 161.194654,313.410172 163.017566,314.832044 L163.263659,315.050793 C163.628242,315.360688 163.919908,315.579437 164.138657,315.707041 C164.485011,315.94402 164.776676,316.062509 165.013655,316.062509 C165.250634,316.062509 165.5423,315.94402 165.888653,315.707041 C166.107403,315.579437 166.399069,315.360688 166.763651,315.050793 L167.009744,314.832044 C168.832657,313.428401 170.063122,312.462257 170.701142,311.933613 L170.701142,310.812522 Z M159.326169,318.687503 L170.701142,318.687503 L170.701142,313.601578 L167.529274,316.117197 C167.073546,316.500008 166.699849,316.773445 166.408183,316.937507 C165.915997,317.229173 165.451154,317.375006 165.013655,317.375006 C164.576156,317.375006 164.102199,317.229173 163.591784,316.937507 C163.318347,316.773445 162.94465,316.500008 162.470692,316.117197 L159.326169,313.601578 L159.326169,318.687503 Z" id="" fill="#FFFFFF"></path>
        <rect id="Rectangle-22" fill="#7C7C7C" x="200" y="300" width="30" height="30" rx="2"></rect>
        <path d="M220.755831,309.554712 C221.011039,309.80992 221.138643,310.119815 221.138643,310.484398 L221.138643,317.812505 C221.138643,318.177088 221.011039,318.486983 220.755831,318.74219 C220.500623,318.997398 220.190728,319.125002 219.826146,319.125002 L217.638651,319.125002 L217.638651,320.437499 C217.638651,320.802081 217.511047,321.111977 217.255839,321.367184 C217.000632,321.622392 216.690736,321.749996 216.326154,321.749996 L210.201169,321.749996 C209.836586,321.749996 209.526691,321.622392 209.271483,321.367184 C209.016276,321.111977 208.888672,320.802081 208.888672,320.437499 L208.888672,311.68752 C208.888672,311.322937 209.016276,311.013042 209.271483,310.757835 C209.526691,310.502627 209.836586,310.375023 210.201169,310.375023 L212.388664,310.375023 L212.388664,309.062526 C212.388664,308.697944 212.516268,308.388048 212.771475,308.132841 C213.026683,307.877633 213.336578,307.750029 213.70116,307.750029 L218.404274,307.750029 C218.768857,307.750029 219.078752,307.877633 219.333959,308.132841 L220.755831,309.554712 Z M216.162092,320.437499 C216.19855,320.437499 216.235009,320.41927 216.271467,320.382812 C216.307925,320.346353 216.326154,320.309895 216.326154,320.273437 L216.326154,319.125002 L213.70116,319.125002 C213.336578,319.125002 213.026683,318.997398 212.771475,318.74219 C212.516268,318.486983 212.388664,318.177088 212.388664,317.812505 L212.388664,311.68752 L210.365231,311.68752 C210.328773,311.68752 210.292314,311.705749 210.255856,311.742207 C210.219398,311.778665 210.201169,311.815124 210.201169,311.851582 L210.201169,320.273437 C210.201169,320.309895 210.219398,320.346353 210.255856,320.382812 C210.292314,320.41927 210.328773,320.437499 210.365231,320.437499 L216.162092,320.437499 Z M219.662084,317.812505 C219.698542,317.812505 219.735,317.794276 219.771458,317.757818 C219.807917,317.72136 219.826146,317.684901 219.826146,317.648443 L219.826146,312.125019 L217.419902,312.125019 C217.23761,312.125019 217.082663,312.061217 216.955059,311.933613 C216.827455,311.806009 216.763653,311.651062 216.763653,311.46877 L216.763653,309.062526 L213.865223,309.062526 C213.828764,309.062526 213.792306,309.080755 213.755848,309.117213 C213.71939,309.153672 213.70116,309.19013 213.70116,309.226588 L213.70116,317.648443 C213.70116,317.684901 213.71939,317.72136 213.755848,317.757818 C213.792306,317.794276 213.828764,317.812505 213.865223,317.812505 L219.662084,317.812505 Z M219.826146,310.812522 L219.826146,310.539085 C219.826146,310.502627 219.807917,310.466168 219.771458,310.42971 L218.458962,309.117213 C218.422503,309.080755 218.386045,309.062526 218.349587,309.062526 L218.07615,309.062526 L218.07615,310.812522 L219.826146,310.812522 Z" id="" fill="#FFFFFF"></path>
    </g>
</svg>